<svg xmlns="http://www.w3.org/2000/svg" xmlns:xlink="http://www.w3.org/1999/xlink" contentStyleType="text/css" data-diagram-type="CLASS" height="1062px" preserveAspectRatio="none" style="width:1660px;height:1062px;background:#FFFFFF;" version="1.1" viewBox="0 0 1660 1062" width="1660px" zoomAndPan="magnify"><title>Parking Lot Design</title><defs/><g><g class="title" data-source-line="1"><text fill="#000000" font-family="sans-serif" font-size="14" font-weight="bold" lengthAdjust="spacing" textLength="149.9258" x="748.459" y="22.9951">Parking Lot Design</text></g><!--class PowerSource--><g class="entity" data-entity="PowerSource" data-source-line="6" data-uid="ent0002" id="entity_PowerSource"><rect fill="#F1F1F1" height="80.5938" rx="2.5" ry="2.5" style="stroke:#181818;stroke-width:0.5;" width="193.166" x="795.5" y="866.2969"/><ellipse cx="842.2236" cy="882.2969" fill="#B4A7E5" rx="11" ry="11" style="stroke:#181818;stroke-width:1;"/><path d="M838.1455,878.0625 L838.1455,875.9063 L845.5361,875.9063 L845.5361,878.0625 L843.0674,878.0625 L843.0674,886.1406 L845.5361,886.1406 L845.5361,888.2969 L838.1455,888.2969 L838.1455,886.1406 L840.6143,886.1406 L840.6143,878.0625 L838.1455,878.0625 Z " fill="#000000"/><text fill="#000000" font-family="sans-serif" font-size="14" font-style="italic" lengthAdjust="spacing" textLength="91.2188" x="862.7236" y="887.1436">PowerSource</text><line style="stroke:#181818;stroke-width:0.5;" x1="796.5" x2="987.666" y1="898.2969" y2="898.2969"/><line style="stroke:#181818;stroke-width:0.5;" x1="796.5" x2="987.666" y1="906.2969" y2="906.2969"/><ellipse cx="806.5" cy="919.9453" fill="#84BE84" rx="3" ry="3" style="stroke:#038048;stroke-width:1;"/><text fill="#000000" font-family="sans-serif" font-size="14" lengthAdjust="spacing" textLength="167.166" x="815.5" y="923.292">getSurcharge() : double</text><ellipse cx="806.5" cy="936.2422" fill="#84BE84" rx="3" ry="3" style="stroke:#038048;stroke-width:1;"/><text fill="#000000" font-family="sans-serif" font-size="14" lengthAdjust="spacing" textLength="123.6484" x="815.5" y="939.5889">getType() : String</text></g><!--class Combustion--><g class="entity" data-entity="Combustion" data-source-line="11" data-uid="ent0003" id="entity_Combustion"><rect fill="#F1F1F1" height="48" rx="2.5" ry="2.5" style="stroke:#181818;stroke-width:0.5;" width="115.8496" x="775" y="1007.2969"/><ellipse cx="790" cy="1023.2969" fill="#ADD1B2" rx="11" ry="11" style="stroke:#181818;stroke-width:1;"/><path d="M792.9688,1028.9375 Q792.3906,1029.2344 791.75,1029.375 Q791.1094,1029.5313 790.4063,1029.5313 Q787.9063,1029.5313 786.5781,1027.8906 Q785.2656,1026.2344 785.2656,1023.1094 Q785.2656,1019.9844 786.5781,1018.3281 Q787.9063,1016.6719 790.4063,1016.6719 Q791.1094,1016.6719 791.75,1016.8281 Q792.4063,1016.9844 792.9688,1017.2813 L792.9688,1020 Q792.3438,1019.4219 791.75,1019.1563 Q791.1563,1018.875 790.5313,1018.875 Q789.1875,1018.875 788.5,1019.9531 Q787.8125,1021.0156 787.8125,1023.1094 Q787.8125,1025.2031 788.5,1026.2813 Q789.1875,1027.3438 790.5313,1027.3438 Q791.1563,1027.3438 791.75,1027.0781 Q792.3438,1026.7969 792.9688,1026.2188 L792.9688,1028.9375 Z " fill="#000000"/><text fill="#000000" font-family="sans-serif" font-size="14" lengthAdjust="spacing" textLength="83.8496" x="804" y="1028.1436">Combustion</text><line style="stroke:#181818;stroke-width:0.5;" x1="776" x2="889.8496" y1="1039.2969" y2="1039.2969"/><line style="stroke:#181818;stroke-width:0.5;" x1="776" x2="889.8496" y1="1047.2969" y2="1047.2969"/></g><!--class EV--><g class="entity" data-entity="EV" data-source-line="12" data-uid="ent0005" id="entity_EV"><rect fill="#F1F1F1" height="48" rx="2.5" ry="2.5" style="stroke:#181818;stroke-width:0.5;" width="50.4229" x="926" y="1007.2969"/><ellipse cx="941" cy="1023.2969" fill="#ADD1B2" rx="11" ry="11" style="stroke:#181818;stroke-width:1;"/><path d="M943.9688,1028.9375 Q943.3906,1029.2344 942.75,1029.375 Q942.1094,1029.5313 941.4063,1029.5313 Q938.9063,1029.5313 937.5781,1027.8906 Q936.2656,1026.2344 936.2656,1023.1094 Q936.2656,1019.9844 937.5781,1018.3281 Q938.9063,1016.6719 941.4063,1016.6719 Q942.1094,1016.6719 942.75,1016.8281 Q943.4063,1016.9844 943.9688,1017.2813 L943.9688,1020 Q943.3438,1019.4219 942.75,1019.1563 Q942.1563,1018.875 941.5313,1018.875 Q940.1875,1018.875 939.5,1019.9531 Q938.8125,1021.0156 938.8125,1023.1094 Q938.8125,1025.2031 939.5,1026.2813 Q940.1875,1027.3438 941.5313,1027.3438 Q942.1563,1027.3438 942.75,1027.0781 Q943.3438,1026.7969 943.9688,1026.2188 L943.9688,1028.9375 Z " fill="#000000"/><text fill="#000000" font-family="sans-serif" font-size="14" lengthAdjust="spacing" textLength="18.4229" x="955" y="1028.1436">EV</text><line style="stroke:#181818;stroke-width:0.5;" x1="927" x2="975.4229" y1="1039.2969" y2="1039.2969"/><line style="stroke:#181818;stroke-width:0.5;" x1="927" x2="975.4229" y1="1047.2969" y2="1047.2969"/></g><!--class Vehicle--><g class="entity" data-entity="Vehicle" data-source-line="17" data-uid="ent0007" id="entity_Vehicle"><rect fill="#F1F1F1" height="129.4844" rx="2.5" ry="2.5" style="stroke:#181818;stroke-width:0.5;" width="255.9678" x="1003" y="677.2969"/><ellipse cx="1101.1572" cy="693.2969" fill="#A9DCDF" rx="11" ry="11" style="stroke:#181818;stroke-width:1;"/><path d="M1101.2666,688.6406 L1100.1104,693.7188 L1102.4385,693.7188 L1101.2666,688.6406 Z M1099.7822,686.4063 L1102.7666,686.4063 L1106.126,698.7969 L1103.6729,698.7969 L1102.9072,695.7344 L1099.626,695.7344 L1098.876,698.7969 L1096.4385,698.7969 L1099.7822,686.4063 Z " fill="#000000"/><text fill="#000000" font-family="sans-serif" font-size="14" font-style="italic" lengthAdjust="spacing" textLength="51.1533" x="1121.6572" y="698.1436">Vehicle</text><line style="stroke:#181818;stroke-width:0.5;" x1="1004" x2="1257.9678" y1="709.2969" y2="709.2969"/><rect fill="none" height="6" style="stroke:#C82930;stroke-width:1;" width="6" x="1011" y="719.9453"/><text fill="#000000" font-family="sans-serif" font-size="14" lengthAdjust="spacing" textLength="139.2822" x="1023" y="726.292">licensePlate : String</text><rect fill="none" height="6" style="stroke:#C82930;stroke-width:1;" width="6" x="1011" y="736.2422"/><text fill="#000000" font-family="sans-serif" font-size="14" lengthAdjust="spacing" textLength="196.499" x="1023" y="742.5889">powerSource : PowerSource</text><line style="stroke:#181818;stroke-width:0.5;" x1="1004" x2="1257.9678" y1="749.8906" y2="749.8906"/><ellipse cx="1014" cy="763.5391" fill="#84BE84" rx="3" ry="3" style="stroke:#038048;stroke-width:1;"/><text fill="#000000" font-family="sans-serif" font-size="14" lengthAdjust="spacing" textLength="123.6484" x="1023" y="766.8857">getType() : String</text><ellipse cx="1014" cy="779.8359" fill="#84BE84" rx="3" ry="3" style="stroke:#038048;stroke-width:1;"/><text fill="#000000" font-family="sans-serif" font-size="14" lengthAdjust="spacing" textLength="177.1055" x="1023" y="783.1826">getLicensePlate() : String</text><ellipse cx="1014" cy="796.1328" fill="#84BE84" rx="3" ry="3" style="stroke:#038048;stroke-width:1;"/><text fill="#000000" font-family="sans-serif" font-size="14" lengthAdjust="spacing" textLength="229.9678" x="1023" y="799.4795">getPowerSource() : PowerSource</text></g><!--class Car--><g class="entity" data-entity="Car" data-source-line="25" data-uid="ent0008" id="entity_Car"><rect fill="#F1F1F1" height="48" rx="2.5" ry="2.5" style="stroke:#181818;stroke-width:0.5;" width="56.1104" x="1024" y="882.7969"/><ellipse cx="1039" cy="898.7969" fill="#ADD1B2" rx="11" ry="11" style="stroke:#181818;stroke-width:1;"/><path d="M1041.9688,904.4375 Q1041.3906,904.7344 1040.75,904.875 Q1040.1094,905.0313 1039.4063,905.0313 Q1036.9063,905.0313 1035.5781,903.3906 Q1034.2656,901.7344 1034.2656,898.6094 Q1034.2656,895.4844 1035.5781,893.8281 Q1036.9063,892.1719 1039.4063,892.1719 Q1040.1094,892.1719 1040.75,892.3281 Q1041.4063,892.4844 1041.9688,892.7813 L1041.9688,895.5 Q1041.3438,894.9219 1040.75,894.6563 Q1040.1563,894.375 1039.5313,894.375 Q1038.1875,894.375 1037.5,895.4531 Q1036.8125,896.5156 1036.8125,898.6094 Q1036.8125,900.7031 1037.5,901.7813 Q1038.1875,902.8438 1039.5313,902.8438 Q1040.1563,902.8438 1040.75,902.5781 Q1041.3438,902.2969 1041.9688,901.7188 L1041.9688,904.4375 Z " fill="#000000"/><text fill="#000000" font-family="sans-serif" font-size="14" lengthAdjust="spacing" textLength="24.1104" x="1053" y="903.6436">Car</text><line style="stroke:#181818;stroke-width:0.5;" x1="1025" x2="1079.1104" y1="914.7969" y2="914.7969"/><line style="stroke:#181818;stroke-width:0.5;" x1="1025" x2="1079.1104" y1="922.7969" y2="922.7969"/></g><!--class Bike--><g class="entity" data-entity="Bike" data-source-line="26" data-uid="ent0010" id="entity_Bike"><rect fill="#F1F1F1" height="48" rx="2.5" ry="2.5" style="stroke:#181818;stroke-width:0.5;" width="62.2148" x="1115" y="882.7969"/><ellipse cx="1130" cy="898.7969" fill="#ADD1B2" rx="11" ry="11" style="stroke:#181818;stroke-width:1;"/><path d="M1132.9688,904.4375 Q1132.3906,904.7344 1131.75,904.875 Q1131.1094,905.0313 1130.4063,905.0313 Q1127.9063,905.0313 1126.5781,903.3906 Q1125.2656,901.7344 1125.2656,898.6094 Q1125.2656,895.4844 1126.5781,893.8281 Q1127.9063,892.1719 1130.4063,892.1719 Q1131.1094,892.1719 1131.75,892.3281 Q1132.4063,892.4844 1132.9688,892.7813 L1132.9688,895.5 Q1132.3438,894.9219 1131.75,894.6563 Q1131.1563,894.375 1130.5313,894.375 Q1129.1875,894.375 1128.5,895.4531 Q1127.8125,896.5156 1127.8125,898.6094 Q1127.8125,900.7031 1128.5,901.7813 Q1129.1875,902.8438 1130.5313,902.8438 Q1131.1563,902.8438 1131.75,902.5781 Q1132.3438,902.2969 1132.9688,901.7188 L1132.9688,904.4375 Z " fill="#000000"/><text fill="#000000" font-family="sans-serif" font-size="14" lengthAdjust="spacing" textLength="30.2148" x="1144" y="903.6436">Bike</text><line style="stroke:#181818;stroke-width:0.5;" x1="1116" x2="1176.2148" y1="914.7969" y2="914.7969"/><line style="stroke:#181818;stroke-width:0.5;" x1="1116" x2="1176.2148" y1="922.7969" y2="922.7969"/></g><!--class Truck--><g class="entity" data-entity="Truck" data-source-line="27" data-uid="ent0012" id="entity_Truck"><rect fill="#F1F1F1" height="48" rx="2.5" ry="2.5" style="stroke:#181818;stroke-width:0.5;" width="70.9854" x="1212.5" y="882.7969"/><ellipse cx="1227.5" cy="898.7969" fill="#ADD1B2" rx="11" ry="11" style="stroke:#181818;stroke-width:1;"/><path d="M1230.4688,904.4375 Q1229.8906,904.7344 1229.25,904.875 Q1228.6094,905.0313 1227.9063,905.0313 Q1225.4063,905.0313 1224.0781,903.3906 Q1222.7656,901.7344 1222.7656,898.6094 Q1222.7656,895.4844 1224.0781,893.8281 Q1225.4063,892.1719 1227.9063,892.1719 Q1228.6094,892.1719 1229.25,892.3281 Q1229.9063,892.4844 1230.4688,892.7813 L1230.4688,895.5 Q1229.8438,894.9219 1229.25,894.6563 Q1228.6563,894.375 1228.0313,894.375 Q1226.6875,894.375 1226,895.4531 Q1225.3125,896.5156 1225.3125,898.6094 Q1225.3125,900.7031 1226,901.7813 Q1226.6875,902.8438 1228.0313,902.8438 Q1228.6563,902.8438 1229.25,902.5781 Q1229.8438,902.2969 1230.4688,901.7188 L1230.4688,904.4375 Z " fill="#000000"/><text fill="#000000" font-family="sans-serif" font-size="14" lengthAdjust="spacing" textLength="38.9854" x="1241.5" y="903.6436">Truck</text><line style="stroke:#181818;stroke-width:0.5;" x1="1213.5" x2="1282.4854" y1="914.7969" y2="914.7969"/><line style="stroke:#181818;stroke-width:0.5;" x1="1213.5" x2="1282.4854" y1="922.7969" y2="922.7969"/></g><!--class ParkingSpot--><g class="entity" data-entity="ParkingSpot" data-source-line="34" data-uid="ent0015" id="entity_ParkingSpot"><rect fill="#F1F1F1" height="145.7813" rx="2.5" ry="2.5" style="stroke:#181818;stroke-width:0.5;" width="247.5254" x="725" y="446.7969"/><ellipse cx="802.3315" cy="462.7969" fill="#A9DCDF" rx="11" ry="11" style="stroke:#181818;stroke-width:1;"/><path d="M802.4409,458.1406 L801.2847,463.2188 L803.6128,463.2188 L802.4409,458.1406 Z M800.9565,455.9063 L803.9409,455.9063 L807.3003,468.2969 L804.8472,468.2969 L804.0815,465.2344 L800.8003,465.2344 L800.0503,468.2969 L797.6128,468.2969 L800.9565,455.9063 Z " fill="#000000"/><text fill="#000000" font-family="sans-serif" font-size="14" font-style="italic" lengthAdjust="spacing" textLength="84.3623" x="822.8315" y="467.6436">ParkingSpot</text><line style="stroke:#181818;stroke-width:0.5;" x1="726" x2="971.5254" y1="478.7969" y2="478.7969"/><rect fill="none" height="6" style="stroke:#C82930;stroke-width:1;" width="6" x="733" y="489.4453"/><text fill="#000000" font-family="sans-serif" font-size="14" lengthAdjust="spacing" textLength="68.1748" x="745" y="495.792">id : String</text><rect fill="none" height="6" style="stroke:#C82930;stroke-width:1;" width="6" x="733" y="505.7422"/><text fill="#000000" font-family="sans-serif" font-size="14" lengthAdjust="spacing" textLength="166.9814" x="745" y="512.0889">currentVehicle : Vehicle</text><line style="stroke:#181818;stroke-width:0.5;" x1="726" x2="971.5254" y1="519.3906" y2="519.3906"/><ellipse cx="736" cy="533.0391" fill="#84BE84" rx="3" ry="3" style="stroke:#038048;stroke-width:1;"/><text fill="#000000" font-family="sans-serif" font-size="14" lengthAdjust="spacing" textLength="122.7324" x="745" y="536.3857">isFree() : boolean</text><ellipse cx="736" cy="549.3359" fill="#84BE84" rx="3" ry="3" style="stroke:#038048;stroke-width:1;"/><text fill="#000000" font-family="sans-serif" font-size="14" lengthAdjust="spacing" textLength="221.5254" x="745" y="552.6826">assignVehicle(vehicle : Vehicle)</text><ellipse cx="736" cy="565.6328" fill="#84BE84" rx="3" ry="3" style="stroke:#038048;stroke-width:1;"/><text fill="#000000" font-family="sans-serif" font-size="14" lengthAdjust="spacing" textLength="70.6631" x="745" y="568.9795">freeSpot()</text><ellipse cx="736" cy="581.9297" fill="#84BE84" rx="3" ry="3" style="stroke:#038048;stroke-width:1;"/><text fill="#000000" font-family="sans-serif" font-size="14" lengthAdjust="spacing" textLength="155.4766" x="745" y="585.2764">getSpotType() : String</text></g><!--class CarSpot--><g class="entity" data-entity="CarSpot" data-source-line="43" data-uid="ent0016" id="entity_CarSpot"><rect fill="#F1F1F1" height="48" rx="2.5" ry="2.5" style="stroke:#181818;stroke-width:0.5;" width="87.9385" x="612" y="717.7969"/><ellipse cx="627" cy="733.7969" fill="#ADD1B2" rx="11" ry="11" style="stroke:#181818;stroke-width:1;"/><path d="M629.9688,739.4375 Q629.3906,739.7344 628.75,739.875 Q628.1094,740.0313 627.4063,740.0313 Q624.9063,740.0313 623.5781,738.3906 Q622.2656,736.7344 622.2656,733.6094 Q622.2656,730.4844 623.5781,728.8281 Q624.9063,727.1719 627.4063,727.1719 Q628.1094,727.1719 628.75,727.3281 Q629.4063,727.4844 629.9688,727.7813 L629.9688,730.5 Q629.3438,729.9219 628.75,729.6563 Q628.1563,729.375 627.5313,729.375 Q626.1875,729.375 625.5,730.4531 Q624.8125,731.5156 624.8125,733.6094 Q624.8125,735.7031 625.5,736.7813 Q626.1875,737.8438 627.5313,737.8438 Q628.1563,737.8438 628.75,737.5781 Q629.3438,737.2969 629.9688,736.7188 L629.9688,739.4375 Z " fill="#000000"/><text fill="#000000" font-family="sans-serif" font-size="14" lengthAdjust="spacing" textLength="55.9385" x="641" y="738.6436">CarSpot</text><line style="stroke:#181818;stroke-width:0.5;" x1="613" x2="698.9385" y1="749.7969" y2="749.7969"/><line style="stroke:#181818;stroke-width:0.5;" x1="613" x2="698.9385" y1="757.7969" y2="757.7969"/></g><!--class BikeSpot--><g class="entity" data-entity="BikeSpot" data-source-line="44" data-uid="ent0018" id="entity_BikeSpot"><rect fill="#F1F1F1" height="48" rx="2.5" ry="2.5" style="stroke:#181818;stroke-width:0.5;" width="94.043" x="735" y="717.7969"/><ellipse cx="750" cy="733.7969" fill="#ADD1B2" rx="11" ry="11" style="stroke:#181818;stroke-width:1;"/><path d="M752.9688,739.4375 Q752.3906,739.7344 751.75,739.875 Q751.1094,740.0313 750.4063,740.0313 Q747.9063,740.0313 746.5781,738.3906 Q745.2656,736.7344 745.2656,733.6094 Q745.2656,730.4844 746.5781,728.8281 Q747.9063,727.1719 750.4063,727.1719 Q751.1094,727.1719 751.75,727.3281 Q752.4063,727.4844 752.9688,727.7813 L752.9688,730.5 Q752.3438,729.9219 751.75,729.6563 Q751.1563,729.375 750.5313,729.375 Q749.1875,729.375 748.5,730.4531 Q747.8125,731.5156 747.8125,733.6094 Q747.8125,735.7031 748.5,736.7813 Q749.1875,737.8438 750.5313,737.8438 Q751.1563,737.8438 751.75,737.5781 Q752.3438,737.2969 752.9688,736.7188 L752.9688,739.4375 Z " fill="#000000"/><text fill="#000000" font-family="sans-serif" font-size="14" lengthAdjust="spacing" textLength="62.043" x="764" y="738.6436">BikeSpot</text><line style="stroke:#181818;stroke-width:0.5;" x1="736" x2="828.043" y1="749.7969" y2="749.7969"/><line style="stroke:#181818;stroke-width:0.5;" x1="736" x2="828.043" y1="757.7969" y2="757.7969"/></g><!--class TruckSpot--><g class="entity" data-entity="TruckSpot" data-source-line="45" data-uid="ent0020" id="entity_TruckSpot"><rect fill="#F1F1F1" height="48" rx="2.5" ry="2.5" style="stroke:#181818;stroke-width:0.5;" width="102.8135" x="864.5" y="717.7969"/><ellipse cx="879.5" cy="733.7969" fill="#ADD1B2" rx="11" ry="11" style="stroke:#181818;stroke-width:1;"/><path d="M882.4688,739.4375 Q881.8906,739.7344 881.25,739.875 Q880.6094,740.0313 879.9063,740.0313 Q877.4063,740.0313 876.0781,738.3906 Q874.7656,736.7344 874.7656,733.6094 Q874.7656,730.4844 876.0781,728.8281 Q877.4063,727.1719 879.9063,727.1719 Q880.6094,727.1719 881.25,727.3281 Q881.9063,727.4844 882.4688,727.7813 L882.4688,730.5 Q881.8438,729.9219 881.25,729.6563 Q880.6563,729.375 880.0313,729.375 Q878.6875,729.375 878,730.4531 Q877.3125,731.5156 877.3125,733.6094 Q877.3125,735.7031 878,736.7813 Q878.6875,737.8438 880.0313,737.8438 Q880.6563,737.8438 881.25,737.5781 Q881.8438,737.2969 882.4688,736.7188 L882.4688,739.4375 Z " fill="#000000"/><text fill="#000000" font-family="sans-serif" font-size="14" lengthAdjust="spacing" textLength="70.8135" x="893.5" y="738.6436">TruckSpot</text><line style="stroke:#181818;stroke-width:0.5;" x1="865.5" x2="966.3135" y1="749.7969" y2="749.7969"/><line style="stroke:#181818;stroke-width:0.5;" x1="865.5" x2="966.3135" y1="757.7969" y2="757.7969"/></g><!--class SpotAllocationStrategy--><g class="entity" data-entity="SpotAllocationStrategy" data-source-line="53" data-uid="ent0023" id="entity_SpotAllocationStrategy"><rect fill="#F1F1F1" height="64.2969" rx="2.5" ry="2.5" style="stroke:#181818;stroke-width:0.5;" width="500.2842" x="7" y="265.7969"/><ellipse cx="172.4775" cy="281.7969" fill="#B4A7E5" rx="11" ry="11" style="stroke:#181818;stroke-width:1;"/><path d="M168.3994,277.5625 L168.3994,275.4063 L175.79,275.4063 L175.79,277.5625 L173.3213,277.5625 L173.3213,285.6406 L175.79,285.6406 L175.79,287.7969 L168.3994,287.7969 L168.3994,285.6406 L170.8682,285.6406 L170.8682,277.5625 L168.3994,277.5625 Z " fill="#000000"/><text fill="#000000" font-family="sans-serif" font-size="14" font-style="italic" lengthAdjust="spacing" textLength="160.8291" x="192.9775" y="286.6436">SpotAllocationStrategy</text><line style="stroke:#181818;stroke-width:0.5;" x1="8" x2="506.2842" y1="297.7969" y2="297.7969"/><line style="stroke:#181818;stroke-width:0.5;" x1="8" x2="506.2842" y1="305.7969" y2="305.7969"/><ellipse cx="18" cy="319.4453" fill="#84BE84" rx="3" ry="3" style="stroke:#038048;stroke-width:1;"/><text fill="#000000" font-family="sans-serif" font-size="14" lengthAdjust="spacing" textLength="474.2842" x="27" y="322.792">findSpot(vehicle : Vehicle, spots : List&lt;ParkingSpot&gt;) : ParkingSpot</text></g><!--class NearestSpotStrategy--><g class="entity" data-entity="NearestSpotStrategy" data-source-line="57" data-uid="ent0024" id="entity_NearestSpotStrategy"><rect fill="#F1F1F1" height="48" rx="2.5" ry="2.5" style="stroke:#181818;stroke-width:0.5;" width="178.6309" x="167.5" y="495.7969"/><ellipse cx="182.5" cy="511.7969" fill="#ADD1B2" rx="11" ry="11" style="stroke:#181818;stroke-width:1;"/><path d="M185.4688,517.4375 Q184.8906,517.7344 184.25,517.875 Q183.6094,518.0313 182.9063,518.0313 Q180.4063,518.0313 179.0781,516.3906 Q177.7656,514.7344 177.7656,511.6094 Q177.7656,508.4844 179.0781,506.8281 Q180.4063,505.1719 182.9063,505.1719 Q183.6094,505.1719 184.25,505.3281 Q184.9063,505.4844 185.4688,505.7813 L185.4688,508.5 Q184.8438,507.9219 184.25,507.6563 Q183.6563,507.375 183.0313,507.375 Q181.6875,507.375 181,508.4531 Q180.3125,509.5156 180.3125,511.6094 Q180.3125,513.7031 181,514.7813 Q181.6875,515.8438 183.0313,515.8438 Q183.6563,515.8438 184.25,515.5781 Q184.8438,515.2969 185.4688,514.7188 L185.4688,517.4375 Z " fill="#000000"/><text fill="#000000" font-family="sans-serif" font-size="14" lengthAdjust="spacing" textLength="146.6309" x="196.5" y="516.6436">NearestSpotStrategy</text><line style="stroke:#181818;stroke-width:0.5;" x1="168.5" x2="345.1309" y1="527.7969" y2="527.7969"/><line style="stroke:#181818;stroke-width:0.5;" x1="168.5" x2="345.1309" y1="535.7969" y2="535.7969"/></g><!--class Ticket--><g class="entity" data-entity="Ticket" data-source-line="62" data-uid="ent0026" id="entity_Ticket"><rect fill="#F1F1F1" height="194.6719" rx="2.5" ry="2.5" style="stroke:#181818;stroke-width:0.5;" width="250.1572" x="1125" y="422.2969"/><ellipse cx="1224.6543" cy="438.2969" fill="#ADD1B2" rx="11" ry="11" style="stroke:#181818;stroke-width:1;"/><path d="M1227.623,443.9375 Q1227.0449,444.2344 1226.4043,444.375 Q1225.7637,444.5313 1225.0605,444.5313 Q1222.5605,444.5313 1221.2324,442.8906 Q1219.9199,441.2344 1219.9199,438.1094 Q1219.9199,434.9844 1221.2324,433.3281 Q1222.5605,431.6719 1225.0605,431.6719 Q1225.7637,431.6719 1226.4043,431.8281 Q1227.0605,431.9844 1227.623,432.2813 L1227.623,435 Q1226.998,434.4219 1226.4043,434.1563 Q1225.8105,433.875 1225.1855,433.875 Q1223.8418,433.875 1223.1543,434.9531 Q1222.4668,436.0156 1222.4668,438.1094 Q1222.4668,440.2031 1223.1543,441.2813 Q1223.8418,442.3438 1225.1855,442.3438 Q1225.8105,442.3438 1226.4043,442.0781 Q1226.998,441.7969 1227.623,441.2188 L1227.623,443.9375 Z " fill="#000000"/><text fill="#000000" font-family="sans-serif" font-size="14" lengthAdjust="spacing" textLength="42.3486" x="1245.1543" y="443.1436">Ticket</text><line style="stroke:#181818;stroke-width:0.5;" x1="1126" x2="1374.1572" y1="454.2969" y2="454.2969"/><rect fill="none" height="6" style="stroke:#C82930;stroke-width:1;" width="6" x="1133" y="464.9453"/><text fill="#000000" font-family="sans-serif" font-size="14" lengthAdjust="spacing" textLength="114.6318" x="1145" y="471.292">vehicle : Vehicle</text><rect fill="none" height="6" style="stroke:#C82930;stroke-width:1;" width="6" x="1133" y="481.2422"/><text fill="#000000" font-family="sans-serif" font-size="14" lengthAdjust="spacing" textLength="128.2148" x="1145" y="487.5889">spot : ParkingSpot</text><rect fill="none" height="6" style="stroke:#C82930;stroke-width:1;" width="6" x="1133" y="497.5391"/><text fill="#000000" font-family="sans-serif" font-size="14" lengthAdjust="spacing" textLength="190.0117" x="1145" y="503.8857">entryTime : LocalDateTime</text><rect fill="none" height="6" style="stroke:#C82930;stroke-width:1;" width="6" x="1133" y="513.8359"/><text fill="#000000" font-family="sans-serif" font-size="14" lengthAdjust="spacing" textLength="179.2725" x="1145" y="520.1826">exitTime : LocalDateTime</text><line style="stroke:#181818;stroke-width:0.5;" x1="1126" x2="1374.1572" y1="527.4844" y2="527.4844"/><ellipse cx="1136" cy="541.1328" fill="#84BE84" rx="3" ry="3" style="stroke:#038048;stroke-width:1;"/><text fill="#000000" font-family="sans-serif" font-size="14" lengthAdjust="spacing" textLength="89.332" x="1145" y="544.4795">closeTicket()</text><ellipse cx="1136" cy="557.4297" fill="#84BE84" rx="3" ry="3" style="stroke:#038048;stroke-width:1;"/><text fill="#000000" font-family="sans-serif" font-size="14" lengthAdjust="spacing" textLength="224.1572" x="1145" y="560.7764">getEntryTime() : LocalDateTime</text><ellipse cx="1136" cy="573.7266" fill="#84BE84" rx="3" ry="3" style="stroke:#038048;stroke-width:1;"/><text fill="#000000" font-family="sans-serif" font-size="14" lengthAdjust="spacing" textLength="213.418" x="1145" y="577.0732">getExitTime() : LocalDateTime</text><ellipse cx="1136" cy="590.0234" fill="#84BE84" rx="3" ry="3" style="stroke:#038048;stroke-width:1;"/><text fill="#000000" font-family="sans-serif" font-size="14" lengthAdjust="spacing" textLength="149.8369" x="1145" y="593.3701">getVehicle() : Vehicle</text><ellipse cx="1136" cy="606.3203" fill="#84BE84" rx="3" ry="3" style="stroke:#038048;stroke-width:1;"/><text fill="#000000" font-family="sans-serif" font-size="14" lengthAdjust="spacing" textLength="163.7207" x="1145" y="609.667">getSpot() : ParkingSpot</text></g><!--class PaymentStrategy--><g class="entity" data-entity="PaymentStrategy" data-source-line="79" data-uid="ent0028" id="entity_PaymentStrategy"><rect fill="#F1F1F1" height="64.2969" rx="2.5" ry="2.5" style="stroke:#181818;stroke-width:0.5;" width="282.0947" x="1294" y="709.7969"/><ellipse cx="1369.8447" cy="725.7969" fill="#B4A7E5" rx="11" ry="11" style="stroke:#181818;stroke-width:1;"/><path d="M1365.7666,721.5625 L1365.7666,719.4063 L1373.1572,719.4063 L1373.1572,721.5625 L1370.6885,721.5625 L1370.6885,729.6406 L1373.1572,729.6406 L1373.1572,731.7969 L1365.7666,731.7969 L1365.7666,729.6406 L1368.2354,729.6406 L1368.2354,721.5625 L1365.7666,721.5625 Z " fill="#000000"/><text fill="#000000" font-family="sans-serif" font-size="14" font-style="italic" lengthAdjust="spacing" textLength="121.9053" x="1390.3447" y="730.6436">PaymentStrategy</text><line style="stroke:#181818;stroke-width:0.5;" x1="1295" x2="1575.0947" y1="741.7969" y2="741.7969"/><line style="stroke:#181818;stroke-width:0.5;" x1="1295" x2="1575.0947" y1="749.7969" y2="749.7969"/><ellipse cx="1305" cy="763.4453" fill="#84BE84" rx="3" ry="3" style="stroke:#038048;stroke-width:1;"/><text fill="#000000" font-family="sans-serif" font-size="14" lengthAdjust="spacing" textLength="256.0947" x="1314" y="766.792">calculateFee(ticket : Ticket) : double</text></g><!--class HourlyPayment--><g class="entity" data-entity="HourlyPayment" data-source-line="83" data-uid="ent0029" id="entity_HourlyPayment"><rect fill="#F1F1F1" height="48" rx="2.5" ry="2.5" style="stroke:#181818;stroke-width:0.5;" width="139.8164" x="1349" y="882.7969"/><ellipse cx="1364" cy="898.7969" fill="#ADD1B2" rx="11" ry="11" style="stroke:#181818;stroke-width:1;"/><path d="M1366.9688,904.4375 Q1366.3906,904.7344 1365.75,904.875 Q1365.1094,905.0313 1364.4063,905.0313 Q1361.9063,905.0313 1360.5781,903.3906 Q1359.2656,901.7344 1359.2656,898.6094 Q1359.2656,895.4844 1360.5781,893.8281 Q1361.9063,892.1719 1364.4063,892.1719 Q1365.1094,892.1719 1365.75,892.3281 Q1366.4063,892.4844 1366.9688,892.7813 L1366.9688,895.5 Q1366.3438,894.9219 1365.75,894.6563 Q1365.1563,894.375 1364.5313,894.375 Q1363.1875,894.375 1362.5,895.4531 Q1361.8125,896.5156 1361.8125,898.6094 Q1361.8125,900.7031 1362.5,901.7813 Q1363.1875,902.8438 1364.5313,902.8438 Q1365.1563,902.8438 1365.75,902.5781 Q1366.3438,902.2969 1366.9688,901.7188 L1366.9688,904.4375 Z " fill="#000000"/><text fill="#000000" font-family="sans-serif" font-size="14" lengthAdjust="spacing" textLength="107.8164" x="1378" y="903.6436">HourlyPayment</text><line style="stroke:#181818;stroke-width:0.5;" x1="1350" x2="1487.8164" y1="914.7969" y2="914.7969"/><line style="stroke:#181818;stroke-width:0.5;" x1="1350" x2="1487.8164" y1="922.7969" y2="922.7969"/></g><!--class DailyPayment--><g class="entity" data-entity="DailyPayment" data-source-line="84" data-uid="ent0031" id="entity_DailyPayment"><rect fill="#F1F1F1" height="48" rx="2.5" ry="2.5" style="stroke:#181818;stroke-width:0.5;" width="129.3438" x="1524.5" y="882.7969"/><ellipse cx="1539.5" cy="898.7969" fill="#ADD1B2" rx="11" ry="11" style="stroke:#181818;stroke-width:1;"/><path d="M1542.4688,904.4375 Q1541.8906,904.7344 1541.25,904.875 Q1540.6094,905.0313 1539.9063,905.0313 Q1537.4063,905.0313 1536.0781,903.3906 Q1534.7656,901.7344 1534.7656,898.6094 Q1534.7656,895.4844 1536.0781,893.8281 Q1537.4063,892.1719 1539.9063,892.1719 Q1540.6094,892.1719 1541.25,892.3281 Q1541.9063,892.4844 1542.4688,892.7813 L1542.4688,895.5 Q1541.8438,894.9219 1541.25,894.6563 Q1540.6563,894.375 1540.0313,894.375 Q1538.6875,894.375 1538,895.4531 Q1537.3125,896.5156 1537.3125,898.6094 Q1537.3125,900.7031 1538,901.7813 Q1538.6875,902.8438 1540.0313,902.8438 Q1540.6563,902.8438 1541.25,902.5781 Q1541.8438,902.2969 1542.4688,901.7188 L1542.4688,904.4375 Z " fill="#000000"/><text fill="#000000" font-family="sans-serif" font-size="14" lengthAdjust="spacing" textLength="97.3438" x="1553.5" y="903.6436">DailyPayment</text><line style="stroke:#181818;stroke-width:0.5;" x1="1525.5" x2="1652.8438" y1="914.7969" y2="914.7969"/><line style="stroke:#181818;stroke-width:0.5;" x1="1525.5" x2="1652.8438" y1="922.7969" y2="922.7969"/></g><!--class Level--><g class="entity" data-entity="Level" data-source-line="91" data-uid="ent0034" id="entity_Level"><rect fill="#F1F1F1" height="129.4844" rx="2.5" ry="2.5" style="stroke:#181818;stroke-width:0.5;" width="613.8701" x="542" y="233.2969"/><ellipse cx="826.0845" cy="249.2969" fill="#ADD1B2" rx="11" ry="11" style="stroke:#181818;stroke-width:1;"/><path d="M829.0532,254.9375 Q828.4751,255.2344 827.8345,255.375 Q827.1938,255.5313 826.4907,255.5313 Q823.9907,255.5313 822.6626,253.8906 Q821.3501,252.2344 821.3501,249.1094 Q821.3501,245.9844 822.6626,244.3281 Q823.9907,242.6719 826.4907,242.6719 Q827.1938,242.6719 827.8345,242.8281 Q828.4907,242.9844 829.0532,243.2813 L829.0532,246 Q828.4282,245.4219 827.8345,245.1563 Q827.2407,244.875 826.6157,244.875 Q825.272,244.875 824.5845,245.9531 Q823.897,247.0156 823.897,249.1094 Q823.897,251.2031 824.5845,252.2813 Q825.272,253.3438 826.6157,253.3438 Q827.2407,253.3438 827.8345,253.0781 Q828.4282,252.7969 829.0532,252.2188 L829.0532,254.9375 Z " fill="#000000"/><text fill="#000000" font-family="sans-serif" font-size="14" lengthAdjust="spacing" textLength="37.2012" x="846.5845" y="254.1436">Level</text><line style="stroke:#181818;stroke-width:0.5;" x1="543" x2="1154.8701" y1="265.2969" y2="265.2969"/><rect fill="none" height="6" style="stroke:#C82930;stroke-width:1;" width="6" x="550" y="275.9453"/><text fill="#000000" font-family="sans-serif" font-size="14" lengthAdjust="spacing" textLength="121.3994" x="562" y="282.292">levelNumber : int</text><rect fill="none" height="6" style="stroke:#C82930;stroke-width:1;" width="6" x="550" y="292.2422"/><text fill="#000000" font-family="sans-serif" font-size="14" lengthAdjust="spacing" textLength="183.4424" x="562" y="298.5889">spots : List&lt;ParkingSpot&gt;</text><line style="stroke:#181818;stroke-width:0.5;" x1="543" x2="1154.8701" y1="305.8906" y2="305.8906"/><ellipse cx="553" cy="319.5391" fill="#84BE84" rx="3" ry="3" style="stroke:#038048;stroke-width:1;"/><text fill="#000000" font-family="sans-serif" font-size="14" lengthAdjust="spacing" textLength="587.8701" x="562" y="322.8857">findAvailableSpot(vehicle : Vehicle, strategy : SpotAllocationStrategy) : ParkingSpot</text><ellipse cx="553" cy="335.8359" fill="#84BE84" rx="3" ry="3" style="stroke:#038048;stroke-width:1;"/><text fill="#000000" font-family="sans-serif" font-size="14" lengthAdjust="spacing" textLength="116.4023" x="562" y="339.1826">isFull() : boolean</text><ellipse cx="553" cy="352.1328" fill="#84BE84" rx="3" ry="3" style="stroke:#038048;stroke-width:1;"/><text fill="#000000" font-family="sans-serif" font-size="14" lengthAdjust="spacing" textLength="159.2227" x="562" y="355.4795">getLevelNumber() : int</text></g><!--class ParkingLot--><g class="entity" data-entity="ParkingLot" data-source-line="104" data-uid="ent0036" id="entity_ParkingLot"><rect fill="#F1F1F1" height="129.4844" rx="2.5" ry="2.5" style="stroke:#181818;stroke-width:0.5;" width="588.543" x="258.5" y="44.2969"/><ellipse cx="511.3271" cy="60.2969" fill="#ADD1B2" rx="11" ry="11" style="stroke:#181818;stroke-width:1;"/><path d="M514.2959,65.9375 Q513.7178,66.2344 513.0771,66.375 Q512.4365,66.5313 511.7334,66.5313 Q509.2334,66.5313 507.9053,64.8906 Q506.5928,63.2344 506.5928,60.1094 Q506.5928,56.9844 507.9053,55.3281 Q509.2334,53.6719 511.7334,53.6719 Q512.4365,53.6719 513.0771,53.8281 Q513.7334,53.9844 514.2959,54.2813 L514.2959,57 Q513.6709,56.4219 513.0771,56.1563 Q512.4834,55.875 511.8584,55.875 Q510.5146,55.875 509.8271,56.9531 Q509.1396,58.0156 509.1396,60.1094 Q509.1396,62.2031 509.8271,63.2813 Q510.5146,64.3438 511.8584,64.3438 Q512.4834,64.3438 513.0771,64.0781 Q513.6709,63.7969 514.2959,63.2188 L514.2959,65.9375 Z " fill="#000000"/><text fill="#000000" font-family="sans-serif" font-size="14" lengthAdjust="spacing" textLength="74.3887" x="531.8271" y="65.1436">ParkingLot</text><line style="stroke:#181818;stroke-width:0.5;" x1="259.5" x2="846.043" y1="76.2969" y2="76.2969"/><rect fill="none" height="6" style="stroke:#C82930;stroke-width:1;" width="6" x="266.5" y="86.9453"/><text fill="#000000" font-family="sans-serif" font-size="14" lengthAdjust="spacing" textLength="139.3369" x="278.5" y="93.292">levels : List&lt;Level&gt;</text><rect fill="none" height="6" style="stroke:#C82930;stroke-width:1;" width="6" x="266.5" y="103.2422"/><text fill="#000000" font-family="sans-serif" font-size="14" lengthAdjust="spacing" textLength="232.8389" x="278.5" y="109.5889">strategy : SpotAllocationStrategy</text><line style="stroke:#181818;stroke-width:0.5;" x1="259.5" x2="846.043" y1="116.8906" y2="116.8906"/><ellipse cx="269.5" cy="130.5391" fill="#84BE84" rx="3" ry="3" style="stroke:#038048;stroke-width:1;"/><text fill="#000000" font-family="sans-serif" font-size="14" lengthAdjust="spacing" textLength="562.543" x="278.5" y="133.8857">getInstance(levels : List&lt;Level&gt;, strategy : SpotAllocationStrategy) : ParkingLot</text><ellipse cx="269.5" cy="146.8359" fill="#84BE84" rx="3" ry="3" style="stroke:#038048;stroke-width:1;"/><text fill="#000000" font-family="sans-serif" font-size="14" lengthAdjust="spacing" textLength="264.0039" x="278.5" y="150.1826">parkVehicle(vehicle : Vehicle) : Ticket</text><ellipse cx="269.5" cy="163.1328" fill="#84BE84" rx="3" ry="3" style="stroke:#038048;stroke-width:1;"/><text fill="#000000" font-family="sans-serif" font-size="14" lengthAdjust="spacing" textLength="534.5088" x="278.5" y="166.4795">unparkVehicle(ticket : Ticket, paymentStrategy : PaymentStrategy) : double</text></g><!--reverse link PowerSource to Combustion--><g class="link" data-entity-1="PowerSource" data-entity-2="Combustion" data-source-line="11" data-uid="lnk4" id="link_PowerSource_Combustion"><path d="M865.0348,963.7866 C855.5548,983.4866 852.23,990.3669 844.15,1007.1369" fill="none" id="PowerSource-backto-Combustion" style="stroke:#181818;stroke-width:1;stroke-dasharray:7.0,7.0;"/><polygon fill="none" points="872.84,947.5669,859.6282,961.1848,870.4414,966.3883,872.84,947.5669" style="stroke:#181818;stroke-width:1;"/></g><!--reverse link PowerSource to EV--><g class="link" data-entity-1="PowerSource" data-entity-2="EV" data-source-line="12" data-uid="lnk6" id="link_PowerSource_EV"><path d="M918.9652,963.7866 C928.4452,983.4866 931.77,990.3669 939.85,1007.1369" fill="none" id="PowerSource-backto-EV" style="stroke:#181818;stroke-width:1;stroke-dasharray:7.0,7.0;"/><polygon fill="none" points="911.16,947.5669,913.5586,966.3883,924.3718,961.1848,911.16,947.5669" style="stroke:#181818;stroke-width:1;"/></g><!--reverse link Vehicle to Car--><g class="link" data-entity-1="Vehicle" data-entity-2="Car" data-source-line="25" data-uid="lnk9" id="link_Vehicle_Car"><path d="M1092.1542,822.947 C1079.1942,849.707 1072.78,862.9169 1063.2,882.6769" fill="none" id="Vehicle-backto-Car" style="stroke:#181818;stroke-width:1;"/><polygon fill="none" points="1100,806.7469,1086.7542,820.3317,1097.5542,825.5622,1100,806.7469" style="stroke:#181818;stroke-width:1;"/></g><!--reverse link Vehicle to Bike--><g class="link" data-entity-1="Vehicle" data-entity-2="Bike" data-source-line="26" data-uid="lnk11" id="link_Vehicle_Bike"><path d="M1138.5378,824.6713 C1140.9978,851.4313 1142.05,862.9169 1143.87,882.6769" fill="none" id="Vehicle-backto-Bike" style="stroke:#181818;stroke-width:1;"/><polygon fill="none" points="1136.89,806.7469,1132.563,825.2206,1144.5126,824.122,1136.89,806.7469" style="stroke:#181818;stroke-width:1;"/></g><!--reverse link Vehicle to Truck--><g class="link" data-entity-1="Vehicle" data-entity-2="Truck" data-source-line="27" data-uid="lnk13" id="link_Vehicle_Truck"><path d="M1187.4033,821.3719 C1206.6033,848.1319 1217.22,862.9169 1231.41,882.6769" fill="none" id="Vehicle-backto-Truck" style="stroke:#181818;stroke-width:1;"/><polygon fill="none" points="1176.91,806.7469,1182.5283,824.8696,1192.2783,817.8741,1176.91,806.7469" style="stroke:#181818;stroke-width:1;"/></g><!--reverse link Vehicle to PowerSource--><g class="link" data-entity-1="Vehicle" data-entity-2="PowerSource" data-source-line="29" data-uid="lnk14" id="link_Vehicle_PowerSource"><path codeLine="29" d="M1027.6558,813.2778 C998.1958,833.3678 976.43,848.2169 950.17,866.1269" fill="none" id="Vehicle-backto-PowerSource" style="stroke:#181818;stroke-width:1;"/><polygon fill="#181818" points="1037.57,806.5169,1030.3593,806.5926,1027.6558,813.2778,1034.8665,813.202,1037.57,806.5169" style="stroke:#181818;stroke-width:1;"/></g><!--reverse link ParkingSpot to CarSpot--><g class="link" data-entity-1="ParkingSpot" data-entity-2="CarSpot" data-source-line="43" data-uid="lnk17" id="link_ParkingSpot_CarSpot"><path d="M773.9303,606.3687 C736.0103,649.5987 702.13,688.2169 676.32,717.6369" fill="none" id="ParkingSpot-backto-CarSpot" style="stroke:#181818;stroke-width:1;"/><polygon fill="none" points="785.8,592.8369,769.4197,602.4121,778.4409,610.3253,785.8,592.8369" style="stroke:#181818;stroke-width:1;"/></g><!--reverse link ParkingSpot to BikeSpot--><g class="link" data-entity-1="ParkingSpot" data-entity-2="BikeSpot" data-source-line="44" data-uid="lnk19" id="link_ParkingSpot_BikeSpot"><path d="M821.818,610.0567 C808.658,653.2867 798.01,688.2169 789.05,717.6369" fill="none" id="ParkingSpot-backto-BikeSpot" style="stroke:#181818;stroke-width:1;"/><polygon fill="none" points="827.06,592.8369,816.0781,608.3093,827.5579,611.804,827.06,592.8369" style="stroke:#181818;stroke-width:1;"/></g><!--reverse link ParkingSpot to TruckSpot--><g class="link" data-entity-1="ParkingSpot" data-entity-2="TruckSpot" data-source-line="45" data-uid="lnk21" id="link_ParkingSpot_TruckSpot"><path d="M876.182,610.0567 C889.342,653.2867 899.99,688.2169 908.95,717.6369" fill="none" id="ParkingSpot-backto-TruckSpot" style="stroke:#181818;stroke-width:1;"/><polygon fill="none" points="870.94,592.8369,870.4421,611.804,881.9219,608.3093,870.94,592.8369" style="stroke:#181818;stroke-width:1;"/></g><!--reverse link ParkingSpot to Vehicle--><g class="link" data-entity-1="ParkingSpot" data-entity-2="Vehicle" data-source-line="48" data-uid="lnk22" id="link_ParkingSpot_Vehicle"><path codeLine="48" d="M950.8011,600.2184 C985.6511,627.4084 1015.57,650.7469 1049.38,677.1269" fill="none" id="ParkingSpot-backto-Vehicle" style="stroke:#181818;stroke-width:1;"/><polygon fill="none" points="941.34,592.8369,943.61,599.6814,950.8011,600.2184,948.5311,593.374,941.34,592.8369" style="stroke:#181818;stroke-width:1;"/></g><!--reverse link SpotAllocationStrategy to NearestSpotStrategy--><g class="link" data-entity-1="SpotAllocationStrategy" data-entity-2="NearestSpotStrategy" data-source-line="57" data-uid="lnk25" id="link_SpotAllocationStrategy_NearestSpotStrategy"><path d="M257,347.8469 C257,392.5069 257,455.8369 257,495.6269" fill="none" id="SpotAllocationStrategy-backto-NearestSpotStrategy" style="stroke:#181818;stroke-width:1;stroke-dasharray:7.0,7.0;"/><polygon fill="none" points="257,329.8469,251,347.8469,263,347.8469,257,329.8469" style="stroke:#181818;stroke-width:1;"/></g><!--link Ticket to Vehicle--><g class="link" data-entity-1="Ticket" data-entity-2="Vehicle" data-source-line="74" data-uid="lnk27" id="link_Ticket_Vehicle"><path codeLine="74" d="M1197.63,617.6169 C1186.72,637.7869 1178.3332,653.2787 1168.2732,671.8887" fill="none" id="Ticket-to-Vehicle" style="stroke:#181818;stroke-width:1;"/><polygon fill="#181818" points="1165.42,677.1669,1173.2186,671.1518,1167.7977,672.7684,1166.181,667.3475,1165.42,677.1669" style="stroke:#181818;stroke-width:1;"/></g><!--reverse link PaymentStrategy to HourlyPayment--><g class="link" data-entity-1="PaymentStrategy" data-entity-2="HourlyPayment" data-source-line="83" data-uid="lnk30" id="link_PaymentStrategy_HourlyPayment"><path d="M1430.1913,791.7508 C1427.0713,823.5308 1424.06,854.2569 1421.26,882.7569" fill="none" id="PaymentStrategy-backto-HourlyPayment" style="stroke:#181818;stroke-width:1;stroke-dasharray:7.0,7.0;"/><polygon fill="none" points="1431.95,773.8369,1424.22,791.1645,1436.1626,792.337,1431.95,773.8369" style="stroke:#181818;stroke-width:1;"/></g><!--reverse link PaymentStrategy to DailyPayment--><g class="link" data-entity-1="PaymentStrategy" data-entity-2="DailyPayment" data-source-line="84" data-uid="lnk32" id="link_PaymentStrategy_DailyPayment"><path d="M1476.6904,786.922 C1506.7104,818.702 1540.31,854.2569 1567.24,882.7569" fill="none" id="PaymentStrategy-backto-DailyPayment" style="stroke:#181818;stroke-width:1;stroke-dasharray:7.0,7.0;"/><polygon fill="none" points="1464.33,773.8369,1472.3287,791.0421,1481.0521,782.8018,1464.33,773.8369" style="stroke:#181818;stroke-width:1;"/></g><!--link Ticket to PaymentStrategy--><g class="link" data-entity-1="Ticket" data-entity-2="PaymentStrategy" data-source-line="86" data-uid="lnk33" id="link_Ticket_PaymentStrategy"><path codeLine="86" d="M1331.41,617.6169 C1359.33,650.8169 1384.7587,681.0444 1405.0387,705.1644" fill="none" id="Ticket-to-PaymentStrategy" style="stroke:#181818;stroke-width:1;"/><polygon fill="#181818" points="1408.9,709.7569,1406.1697,700.294,1405.6823,705.9299,1400.0464,705.4424,1408.9,709.7569" style="stroke:#181818;stroke-width:1;"/></g><!--reverse link Level to ParkingSpot--><g class="link" data-entity-1="Level" data-entity-2="ParkingSpot" data-source-line="99" data-uid="lnk35" id="link_Level_ParkingSpot"><path codeLine="99" d="M849,374.4269 C849,400.6969 849,419.2869 849,446.4069" fill="none" id="Level-backto-ParkingSpot" style="stroke:#181818;stroke-width:1;"/><polygon fill="#181818" points="849,362.4269,845,368.4269,849,374.4269,853,368.4269,849,362.4269" style="stroke:#181818;stroke-width:1;"/></g><!--reverse link ParkingLot to Level--><g class="link" data-entity-1="ParkingLot" data-entity-2="Level" data-source-line="112" data-uid="lnk37" id="link_ParkingLot_Level"><path codeLine="112" d="M663.7749,179.7763 C694.3549,199.0963 717.82,213.9169 748.4,233.2469" fill="none" id="ParkingLot-backto-Level" style="stroke:#181818;stroke-width:1;"/><polygon fill="#181818" points="653.63,173.3669,656.566,179.9532,663.7749,179.7763,660.8389,173.1899,653.63,173.3669" style="stroke:#181818;stroke-width:1;"/></g><!--link ParkingLot to SpotAllocationStrategy--><g class="link" data-entity-1="ParkingLot" data-entity-2="SpotAllocationStrategy" data-source-line="113" data-uid="lnk38" id="link_ParkingLot_SpotAllocationStrategy"><path codeLine="113" d="M452.37,173.3669 C403.1,204.4969 351.0622,237.3718 311.3722,262.4518" fill="none" id="ParkingLot-to-SpotAllocationStrategy" style="stroke:#181818;stroke-width:1;"/><polygon fill="#181818" points="306.3,265.6569,316.045,264.2307,310.5268,262.9859,311.7716,257.4677,306.3,265.6569" style="stroke:#181818;stroke-width:1;"/></g><!--SRC=[bLN1Zjem4BtdAtmhT9SVGErAAMHtqReGaPHgZoOOri8ao7Reegh_th7Z90QI09o8Pso_z-QDHp75AGg9sB9qWt2cq9XAjaazxmlwtlo3I3Zx7SnHDFir7mLHHoPB5HLhai0DsHygeYmNyF-lX-3tW3PKHR3mGSI6zlfeY5PPlkIqZiR7VH68b01utZ_FIpYH4esotJANYcKfOhizfpkQAkdUOVE2HLkyazuYU9sCS2SpifHAa4IXug85_M09BwaD46S9JIKDEL6qnb_4zeuKmnDGhSIh07RERKnmZZDnz_XQFY8G_LGqNLN8RUG7szAMK2poP7iHyqhcNmU3smKE_VdRPFg2ed0Mtw6ojMcq1vkMIhFLkRv9BWJKkmGshB0M8Z7vB6WXpZBBE2Mf3S0DO7oRt3kSR-_Rj3NirWXwVSV6yDrkLY8Cub8wXuMZ-fKKetvhZkUvqcHGYge-NMNGyYCVuzd8ZoUpAOhYkHy7B-ytTRI-okSyIuZkGo0DbjmSg-PUitHbPBeGyX59M9UmW9bKtnpaJyQn3gzAmoabWagZStMJqzdDMBh9nvFHMn1tf5ZXMRAbjTqEZQuQ64fdu8i0u1F7cEtq5Wm0-HYmwUyo_ibKQ_W1Z9z9Mc1m3HUKfnh7DMtKIVRehfpIxlsBFh6sxZNKn6eo63pTvhFGV_yPJEFx_1MIeoxkXR60HfBhz-yPkbWLI8QsJCuGgQpp2kyHFzhJJiR1wGKsVKpOJTck21UnBZ5mi0ZmLTjXUg2y7YVwQvhlbbG0Gz38SLrZ8pbDw1-04G59MhknL7ZOqaVz1cERTpJdlE4TrMEgnciID68eI47AJ0htyRfbKk3PzLQrXs9dEXZXAeNC_K-bTjTertGcgLGaXOdQTDnz0k9Alpqij0-Roj8sEq_T_3FRFy9XfyqoFFVaQMSuIkbg62BkeZPrCvN_]--></g></svg>