<svg xmlns="http://www.w3.org/2000/svg" xmlns:xlink="http://www.w3.org/1999/xlink" contentStyleType="text/css" data-diagram-type="CLASS" height="819px" preserveAspectRatio="none" style="width:758px;height:819px;background:#FFFFFF;" version="1.1" viewBox="0 0 758 819" width="758px" zoomAndPan="magnify"><title>Parking Lot Design</title><defs/><g><g class="title" data-source-line="1"><text fill="#000000" font-family="sans-serif" font-size="14" font-weight="bold" lengthAdjust="spacing" textLength="149.9258" x="297.2773" y="22.9951">Parking Lot Design</text></g><!--class PowerSource--><g class="entity" data-entity="PowerSource" data-source-line="4" data-uid="ent0002" id="entity_PowerSource"><rect fill="#F1F1F1" height="48" rx="2.5" ry="2.5" style="stroke:#181818;stroke-width:0.5;" width="123.2188" x="153" y="656.2969"/><ellipse cx="168" cy="672.2969" fill="#B4A7E5" rx="11" ry="11" style="stroke:#181818;stroke-width:1;"/><path d="M163.9219,668.0625 L163.9219,665.9063 L171.3125,665.9063 L171.3125,668.0625 L168.8438,668.0625 L168.8438,676.1406 L171.3125,676.1406 L171.3125,678.2969 L163.9219,678.2969 L163.9219,676.1406 L166.3906,676.1406 L166.3906,668.0625 L163.9219,668.0625 Z " fill="#000000"/><text fill="#000000" font-family="sans-serif" font-size="14" font-style="italic" lengthAdjust="spacing" textLength="91.2188" x="182" y="677.1436">PowerSource</text><line style="stroke:#181818;stroke-width:0.5;" x1="154" x2="275.2188" y1="688.2969" y2="688.2969"/><line style="stroke:#181818;stroke-width:0.5;" x1="154" x2="275.2188" y1="696.2969" y2="696.2969"/></g><!--class Combustion--><g class="entity" data-entity="Combustion" data-source-line="7" data-uid="ent0003" id="entity_Combustion"><rect fill="#F1F1F1" height="48" rx="2.5" ry="2.5" style="stroke:#181818;stroke-width:0.5;" width="115.8496" x="89.5" y="764.2969"/><ellipse cx="104.5" cy="780.2969" fill="#ADD1B2" rx="11" ry="11" style="stroke:#181818;stroke-width:1;"/><path d="M107.4688,785.9375 Q106.8906,786.2344 106.25,786.375 Q105.6094,786.5313 104.9063,786.5313 Q102.4063,786.5313 101.0781,784.8906 Q99.7656,783.2344 99.7656,780.1094 Q99.7656,776.9844 101.0781,775.3281 Q102.4063,773.6719 104.9063,773.6719 Q105.6094,773.6719 106.25,773.8281 Q106.9063,773.9844 107.4688,774.2813 L107.4688,777 Q106.8438,776.4219 106.25,776.1563 Q105.6563,775.875 105.0313,775.875 Q103.6875,775.875 103,776.9531 Q102.3125,778.0156 102.3125,780.1094 Q102.3125,782.2031 103,783.2813 Q103.6875,784.3438 105.0313,784.3438 Q105.6563,784.3438 106.25,784.0781 Q106.8438,783.7969 107.4688,783.2188 L107.4688,785.9375 Z " fill="#000000"/><text fill="#000000" font-family="sans-serif" font-size="14" lengthAdjust="spacing" textLength="83.8496" x="118.5" y="785.1436">Combustion</text><line style="stroke:#181818;stroke-width:0.5;" x1="90.5" x2="204.3496" y1="796.2969" y2="796.2969"/><line style="stroke:#181818;stroke-width:0.5;" x1="90.5" x2="204.3496" y1="804.2969" y2="804.2969"/></g><!--class Electric--><g class="entity" data-entity="Electric" data-source-line="8" data-uid="ent0005" id="entity_Electric"><rect fill="#F1F1F1" height="48" rx="2.5" ry="2.5" style="stroke:#181818;stroke-width:0.5;" width="83.8779" x="240.5" y="764.2969"/><ellipse cx="255.5" cy="780.2969" fill="#ADD1B2" rx="11" ry="11" style="stroke:#181818;stroke-width:1;"/><path d="M258.4688,785.9375 Q257.8906,786.2344 257.25,786.375 Q256.6094,786.5313 255.9063,786.5313 Q253.4063,786.5313 252.0781,784.8906 Q250.7656,783.2344 250.7656,780.1094 Q250.7656,776.9844 252.0781,775.3281 Q253.4063,773.6719 255.9063,773.6719 Q256.6094,773.6719 257.25,773.8281 Q257.9063,773.9844 258.4688,774.2813 L258.4688,777 Q257.8438,776.4219 257.25,776.1563 Q256.6563,775.875 256.0313,775.875 Q254.6875,775.875 254,776.9531 Q253.3125,778.0156 253.3125,780.1094 Q253.3125,782.2031 254,783.2813 Q254.6875,784.3438 256.0313,784.3438 Q256.6563,784.3438 257.25,784.0781 Q257.8438,783.7969 258.4688,783.2188 L258.4688,785.9375 Z " fill="#000000"/><text fill="#000000" font-family="sans-serif" font-size="14" lengthAdjust="spacing" textLength="51.8779" x="269.5" y="785.1436">Electric</text><line style="stroke:#181818;stroke-width:0.5;" x1="241.5" x2="323.3779" y1="796.2969" y2="796.2969"/><line style="stroke:#181818;stroke-width:0.5;" x1="241.5" x2="323.3779" y1="804.2969" y2="804.2969"/></g><!--class Vehicle--><g class="entity" data-entity="Vehicle" data-source-line="10" data-uid="ent0007" id="entity_Vehicle"><rect fill="#F1F1F1" height="80.5938" rx="2.5" ry="2.5" style="stroke:#181818;stroke-width:0.5;" width="222.499" x="275.5" y="515.2969"/><ellipse cx="356.9229" cy="531.2969" fill="#A9DCDF" rx="11" ry="11" style="stroke:#181818;stroke-width:1;"/><path d="M357.0322,526.6406 L355.876,531.7188 L358.2041,531.7188 L357.0322,526.6406 Z M355.5479,524.4063 L358.5322,524.4063 L361.8916,536.7969 L359.4385,536.7969 L358.6729,533.7344 L355.3916,533.7344 L354.6416,536.7969 L352.2041,536.7969 L355.5479,524.4063 Z " fill="#000000"/><text fill="#000000" font-family="sans-serif" font-size="14" font-style="italic" lengthAdjust="spacing" textLength="51.1533" x="377.4229" y="536.1436">Vehicle</text><line style="stroke:#181818;stroke-width:0.5;" x1="276.5" x2="496.999" y1="547.2969" y2="547.2969"/><rect fill="none" height="6" style="stroke:#C82930;stroke-width:1;" width="6" x="283.5" y="557.9453"/><text fill="#000000" font-family="sans-serif" font-size="14" lengthAdjust="spacing" textLength="139.2822" x="295.5" y="564.292">licensePlate : String</text><rect fill="none" height="6" style="stroke:#C82930;stroke-width:1;" width="6" x="283.5" y="574.2422"/><text fill="#000000" font-family="sans-serif" font-size="14" lengthAdjust="spacing" textLength="196.499" x="295.5" y="580.5889">powerSource : PowerSource</text><line style="stroke:#181818;stroke-width:0.5;" x1="276.5" x2="496.999" y1="587.8906" y2="587.8906"/></g><!--class Car--><g class="entity" data-entity="Car" data-source-line="15" data-uid="ent0008" id="entity_Car"><rect fill="#F1F1F1" height="48" rx="2.5" ry="2.5" style="stroke:#181818;stroke-width:0.5;" width="56.1104" x="311.5" y="656.2969"/><ellipse cx="326.5" cy="672.2969" fill="#ADD1B2" rx="11" ry="11" style="stroke:#181818;stroke-width:1;"/><path d="M329.4688,677.9375 Q328.8906,678.2344 328.25,678.375 Q327.6094,678.5313 326.9063,678.5313 Q324.4063,678.5313 323.0781,676.8906 Q321.7656,675.2344 321.7656,672.1094 Q321.7656,668.9844 323.0781,667.3281 Q324.4063,665.6719 326.9063,665.6719 Q327.6094,665.6719 328.25,665.8281 Q328.9063,665.9844 329.4688,666.2813 L329.4688,669 Q328.8438,668.4219 328.25,668.1563 Q327.6563,667.875 327.0313,667.875 Q325.6875,667.875 325,668.9531 Q324.3125,670.0156 324.3125,672.1094 Q324.3125,674.2031 325,675.2813 Q325.6875,676.3438 327.0313,676.3438 Q327.6563,676.3438 328.25,676.0781 Q328.8438,675.7969 329.4688,675.2188 L329.4688,677.9375 Z " fill="#000000"/><text fill="#000000" font-family="sans-serif" font-size="14" lengthAdjust="spacing" textLength="24.1104" x="340.5" y="677.1436">Car</text><line style="stroke:#181818;stroke-width:0.5;" x1="312.5" x2="366.6104" y1="688.2969" y2="688.2969"/><line style="stroke:#181818;stroke-width:0.5;" x1="312.5" x2="366.6104" y1="696.2969" y2="696.2969"/></g><!--class Bike--><g class="entity" data-entity="Bike" data-source-line="16" data-uid="ent0010" id="entity_Bike"><rect fill="#F1F1F1" height="48" rx="2.5" ry="2.5" style="stroke:#181818;stroke-width:0.5;" width="62.2148" x="402.5" y="656.2969"/><ellipse cx="417.5" cy="672.2969" fill="#ADD1B2" rx="11" ry="11" style="stroke:#181818;stroke-width:1;"/><path d="M420.4688,677.9375 Q419.8906,678.2344 419.25,678.375 Q418.6094,678.5313 417.9063,678.5313 Q415.4063,678.5313 414.0781,676.8906 Q412.7656,675.2344 412.7656,672.1094 Q412.7656,668.9844 414.0781,667.3281 Q415.4063,665.6719 417.9063,665.6719 Q418.6094,665.6719 419.25,665.8281 Q419.9063,665.9844 420.4688,666.2813 L420.4688,669 Q419.8438,668.4219 419.25,668.1563 Q418.6563,667.875 418.0313,667.875 Q416.6875,667.875 416,668.9531 Q415.3125,670.0156 415.3125,672.1094 Q415.3125,674.2031 416,675.2813 Q416.6875,676.3438 418.0313,676.3438 Q418.6563,676.3438 419.25,676.0781 Q419.8438,675.7969 420.4688,675.2188 L420.4688,677.9375 Z " fill="#000000"/><text fill="#000000" font-family="sans-serif" font-size="14" lengthAdjust="spacing" textLength="30.2148" x="431.5" y="677.1436">Bike</text><line style="stroke:#181818;stroke-width:0.5;" x1="403.5" x2="463.7148" y1="688.2969" y2="688.2969"/><line style="stroke:#181818;stroke-width:0.5;" x1="403.5" x2="463.7148" y1="696.2969" y2="696.2969"/></g><!--class Truck--><g class="entity" data-entity="Truck" data-source-line="17" data-uid="ent0012" id="entity_Truck"><rect fill="#F1F1F1" height="48" rx="2.5" ry="2.5" style="stroke:#181818;stroke-width:0.5;" width="70.9854" x="500" y="656.2969"/><ellipse cx="515" cy="672.2969" fill="#ADD1B2" rx="11" ry="11" style="stroke:#181818;stroke-width:1;"/><path d="M517.9688,677.9375 Q517.3906,678.2344 516.75,678.375 Q516.1094,678.5313 515.4063,678.5313 Q512.9063,678.5313 511.5781,676.8906 Q510.2656,675.2344 510.2656,672.1094 Q510.2656,668.9844 511.5781,667.3281 Q512.9063,665.6719 515.4063,665.6719 Q516.1094,665.6719 516.75,665.8281 Q517.4063,665.9844 517.9688,666.2813 L517.9688,669 Q517.3438,668.4219 516.75,668.1563 Q516.1563,667.875 515.5313,667.875 Q514.1875,667.875 513.5,668.9531 Q512.8125,670.0156 512.8125,672.1094 Q512.8125,674.2031 513.5,675.2813 Q514.1875,676.3438 515.5313,676.3438 Q516.1563,676.3438 516.75,676.0781 Q517.3438,675.7969 517.9688,675.2188 L517.9688,677.9375 Z " fill="#000000"/><text fill="#000000" font-family="sans-serif" font-size="14" lengthAdjust="spacing" textLength="38.9854" x="529" y="677.1436">Truck</text><line style="stroke:#181818;stroke-width:0.5;" x1="501" x2="569.9854" y1="688.2969" y2="688.2969"/><line style="stroke:#181818;stroke-width:0.5;" x1="501" x2="569.9854" y1="696.2969" y2="696.2969"/></g><!--class ParkingLot--><g class="entity" data-entity="ParkingLot" data-source-line="22" data-uid="ent0015" id="entity_ParkingLot"><rect fill="#F1F1F1" height="96.8906" rx="2.5" ry="2.5" style="stroke:#181818;stroke-width:0.5;" width="290.0039" x="106.5" y="44.2969"/><ellipse cx="210.0576" cy="60.2969" fill="#ADD1B2" rx="11" ry="11" style="stroke:#181818;stroke-width:1;"/><path d="M213.0264,65.9375 Q212.4482,66.2344 211.8076,66.375 Q211.167,66.5313 210.4639,66.5313 Q207.9639,66.5313 206.6357,64.8906 Q205.3232,63.2344 205.3232,60.1094 Q205.3232,56.9844 206.6357,55.3281 Q207.9639,53.6719 210.4639,53.6719 Q211.167,53.6719 211.8076,53.8281 Q212.4639,53.9844 213.0264,54.2813 L213.0264,57 Q212.4014,56.4219 211.8076,56.1563 Q211.2139,55.875 210.5889,55.875 Q209.2451,55.875 208.5576,56.9531 Q207.8701,58.0156 207.8701,60.1094 Q207.8701,62.2031 208.5576,63.2813 Q209.2451,64.3438 210.5889,64.3438 Q211.2139,64.3438 211.8076,64.0781 Q212.4014,63.7969 213.0264,63.2188 L213.0264,65.9375 Z " fill="#000000"/><text fill="#000000" font-family="sans-serif" font-size="14" lengthAdjust="spacing" textLength="74.3887" x="230.5576" y="65.1436">ParkingLot</text><line style="stroke:#181818;stroke-width:0.5;" x1="107.5" x2="395.5039" y1="76.2969" y2="76.2969"/><rect fill="none" height="6" style="stroke:#C82930;stroke-width:1;" width="6" x="114.5" y="86.9453"/><text fill="#000000" font-family="sans-serif" font-size="14" lengthAdjust="spacing" textLength="139.3369" x="126.5" y="93.292">levels : List&lt;Level&gt;</text><line style="stroke:#181818;stroke-width:0.5;" x1="107.5" x2="395.5039" y1="100.5938" y2="100.5938"/><ellipse cx="117.5" cy="114.2422" fill="#84BE84" rx="3" ry="3" style="stroke:#038048;stroke-width:1;"/><text fill="#000000" font-family="sans-serif" font-size="14" lengthAdjust="spacing" textLength="264.0039" x="126.5" y="117.5889">parkVehicle(vehicle : Vehicle) : Ticket</text><ellipse cx="117.5" cy="130.5391" fill="#84BE84" rx="3" ry="3" style="stroke:#038048;stroke-width:1;"/><text fill="#000000" font-family="sans-serif" font-size="14" lengthAdjust="spacing" textLength="244.9385" x="126.5" y="133.8857">exitVehicle(ticket : Ticket) : double</text></g><!--class Level--><g class="entity" data-entity="Level" data-source-line="28" data-uid="ent0016" id="entity_Level"><rect fill="#F1F1F1" height="80.5938" rx="2.5" ry="2.5" style="stroke:#181818;stroke-width:0.5;" width="209.4424" x="7" y="201.2969"/><ellipse cx="88.8706" cy="217.2969" fill="#ADD1B2" rx="11" ry="11" style="stroke:#181818;stroke-width:1;"/><path d="M91.8394,222.9375 Q91.2612,223.2344 90.6206,223.375 Q89.98,223.5313 89.2769,223.5313 Q86.7769,223.5313 85.4487,221.8906 Q84.1362,220.2344 84.1362,217.1094 Q84.1362,213.9844 85.4487,212.3281 Q86.7769,210.6719 89.2769,210.6719 Q89.98,210.6719 90.6206,210.8281 Q91.2769,210.9844 91.8394,211.2813 L91.8394,214 Q91.2144,213.4219 90.6206,213.1563 Q90.0269,212.875 89.4019,212.875 Q88.0581,212.875 87.3706,213.9531 Q86.6831,215.0156 86.6831,217.1094 Q86.6831,219.2031 87.3706,220.2813 Q88.0581,221.3438 89.4019,221.3438 Q90.0269,221.3438 90.6206,221.0781 Q91.2144,220.7969 91.8394,220.2188 L91.8394,222.9375 Z " fill="#000000"/><text fill="#000000" font-family="sans-serif" font-size="14" lengthAdjust="spacing" textLength="37.2012" x="109.3706" y="222.1436">Level</text><line style="stroke:#181818;stroke-width:0.5;" x1="8" x2="215.4424" y1="233.2969" y2="233.2969"/><rect fill="none" height="6" style="stroke:#C82930;stroke-width:1;" width="6" x="15" y="243.9453"/><text fill="#000000" font-family="sans-serif" font-size="14" lengthAdjust="spacing" textLength="119.8135" x="27" y="250.292">floorNumber : int</text><rect fill="none" height="6" style="stroke:#C82930;stroke-width:1;" width="6" x="15" y="260.2422"/><text fill="#000000" font-family="sans-serif" font-size="14" lengthAdjust="spacing" textLength="183.4424" x="27" y="266.5889">spots : List&lt;ParkingSpot&gt;</text><line style="stroke:#181818;stroke-width:0.5;" x1="8" x2="215.4424" y1="273.8906" y2="273.8906"/></g><!--class ParkingSpot--><g class="entity" data-entity="ParkingSpot" data-source-line="33" data-uid="ent0017" id="entity_ParkingSpot"><rect fill="#F1F1F1" height="96.8906" rx="2.5" ry="2.5" style="stroke:#181818;stroke-width:0.5;" width="172.3369" x="25.5" y="350.2969"/><ellipse cx="65.6886" cy="366.2969" fill="#ADD1B2" rx="11" ry="11" style="stroke:#181818;stroke-width:1;"/><path d="M68.6573,371.9375 Q68.0792,372.2344 67.4386,372.375 Q66.7979,372.5313 66.0948,372.5313 Q63.5948,372.5313 62.2667,370.8906 Q60.9542,369.2344 60.9542,366.1094 Q60.9542,362.9844 62.2667,361.3281 Q63.5948,359.6719 66.0948,359.6719 Q66.7979,359.6719 67.4386,359.8281 Q68.0948,359.9844 68.6573,360.2813 L68.6573,363 Q68.0323,362.4219 67.4386,362.1563 Q66.8448,361.875 66.2198,361.875 Q64.8761,361.875 64.1886,362.9531 Q63.5011,364.0156 63.5011,366.1094 Q63.5011,368.2031 64.1886,369.2813 Q64.8761,370.3438 66.2198,370.3438 Q66.8448,370.3438 67.4386,370.0781 Q68.0323,369.7969 68.6573,369.2188 L68.6573,371.9375 Z " fill="#000000"/><text fill="#000000" font-family="sans-serif" font-size="14" lengthAdjust="spacing" textLength="84.3623" x="85.286" y="371.1436">ParkingSpot</text><line style="stroke:#181818;stroke-width:0.5;" x1="26.5" x2="196.8369" y1="382.2969" y2="382.2969"/><rect fill="none" height="6" style="stroke:#C82930;stroke-width:1;" width="6" x="33.5" y="392.9453"/><text fill="#000000" font-family="sans-serif" font-size="14" lengthAdjust="spacing" textLength="98.6494" x="45.5" y="399.292">spotId : String</text><rect fill="none" height="6" style="stroke:#C82930;stroke-width:1;" width="6" x="33.5" y="409.2422"/><text fill="#000000" font-family="sans-serif" font-size="14" lengthAdjust="spacing" textLength="111.0566" x="45.5" y="415.5889">type : SpotType</text><rect fill="none" height="6" style="stroke:#C82930;stroke-width:1;" width="6" x="33.5" y="425.5391"/><text fill="#000000" font-family="sans-serif" font-size="14" lengthAdjust="spacing" textLength="146.3369" x="45.5" y="431.8857">isOccupied : boolean</text><line style="stroke:#181818;stroke-width:0.5;" x1="26.5" x2="196.8369" y1="439.1875" y2="439.1875"/></g><!--class SpotType--><g class="entity" data-entity="SpotType" data-source-line="39" data-uid="ent0018" id="entity_SpotType"><rect fill="#F1F1F1" height="96.8906" rx="2.5" ry="2.5" style="stroke:#181818;stroke-width:0.5;" width="98.165" x="431.5" y="44.2969"/><ellipse cx="446.5" cy="60.2969" fill="#EB937F" rx="11" ry="11" style="stroke:#181818;stroke-width:1;"/><path d="M450.6094,66.2969 L442.8906,66.2969 L442.8906,53.9063 L450.6094,53.9063 L450.6094,56.0625 L445.3438,56.0625 L445.3438,58.7344 L450.1094,58.7344 L450.1094,60.8906 L445.3438,60.8906 L445.3438,64.1406 L450.6094,64.1406 L450.6094,66.2969 Z " fill="#000000"/><text fill="#000000" font-family="sans-serif" font-size="14" lengthAdjust="spacing" textLength="66.165" x="460.5" y="65.1436">SpotType</text><line style="stroke:#181818;stroke-width:0.5;" x1="432.5" x2="528.665" y1="76.2969" y2="76.2969"/><text fill="#000000" font-family="sans-serif" font-size="14" lengthAdjust="spacing" textLength="29.0801" x="437.5" y="93.292">CAR</text><text fill="#000000" font-family="sans-serif" font-size="14" lengthAdjust="spacing" textLength="31.7598" x="437.5" y="109.5889">BIKE</text><text fill="#000000" font-family="sans-serif" font-size="14" lengthAdjust="spacing" textLength="47.4824" x="437.5" y="125.8857">TRUCK</text><line style="stroke:#181818;stroke-width:0.5;" x1="432.5" x2="528.665" y1="133.1875" y2="133.1875"/></g><!--class Ticket--><g class="entity" data-entity="Ticket" data-source-line="50" data-uid="ent0022" id="entity_Ticket"><rect fill="#F1F1F1" height="113.1875" rx="2.5" ry="2.5" style="stroke:#181818;stroke-width:0.5;" width="179.4805" x="572" y="342.2969"/><ellipse cx="636.3159" cy="358.2969" fill="#ADD1B2" rx="11" ry="11" style="stroke:#181818;stroke-width:1;"/><path d="M639.2847,363.9375 Q638.7065,364.2344 638.0659,364.375 Q637.4253,364.5313 636.7222,364.5313 Q634.2222,364.5313 632.894,362.8906 Q631.5815,361.2344 631.5815,358.1094 Q631.5815,354.9844 632.894,353.3281 Q634.2222,351.6719 636.7222,351.6719 Q637.4253,351.6719 638.0659,351.8281 Q638.7222,351.9844 639.2847,352.2813 L639.2847,355 Q638.6597,354.4219 638.0659,354.1563 Q637.4722,353.875 636.8472,353.875 Q635.5034,353.875 634.8159,354.9531 Q634.1284,356.0156 634.1284,358.1094 Q634.1284,360.2031 634.8159,361.2813 Q635.5034,362.3438 636.8472,362.3438 Q637.4722,362.3438 638.0659,362.0781 Q638.6597,361.7969 639.2847,361.2188 L639.2847,363.9375 Z " fill="#000000"/><text fill="#000000" font-family="sans-serif" font-size="14" lengthAdjust="spacing" textLength="42.3486" x="656.8159" y="363.1436">Ticket</text><line style="stroke:#181818;stroke-width:0.5;" x1="573" x2="750.4805" y1="374.2969" y2="374.2969"/><rect fill="none" height="6" style="stroke:#C82930;stroke-width:1;" width="6" x="580" y="384.9453"/><text fill="#000000" font-family="sans-serif" font-size="14" lengthAdjust="spacing" textLength="107.7002" x="592" y="391.292">ticketId : String</text><rect fill="none" height="6" style="stroke:#C82930;stroke-width:1;" width="6" x="580" y="401.2422"/><text fill="#000000" font-family="sans-serif" font-size="14" lengthAdjust="spacing" textLength="153.4805" x="592" y="407.5889">entryTime : DateTime</text><rect fill="none" height="6" style="stroke:#C82930;stroke-width:1;" width="6" x="580" y="417.5391"/><text fill="#000000" font-family="sans-serif" font-size="14" lengthAdjust="spacing" textLength="142.7412" x="592" y="423.8857">exitTime : DateTime</text><rect fill="none" height="6" style="stroke:#C82930;stroke-width:1;" width="6" x="580" y="433.8359"/><text fill="#000000" font-family="sans-serif" font-size="14" lengthAdjust="spacing" textLength="114.6318" x="592" y="440.1826">vehicle : Vehicle</text><line style="stroke:#181818;stroke-width:0.5;" x1="573" x2="750.4805" y1="447.4844" y2="447.4844"/></g><!--class PaymentStrategy--><g class="entity" data-entity="PaymentStrategy" data-source-line="57" data-uid="ent0023" id="entity_PaymentStrategy"><rect fill="#F1F1F1" height="64.2969" rx="2.5" ry="2.5" style="stroke:#181818;stroke-width:0.5;" width="282.0947" x="251.5" y="209.7969"/><ellipse cx="327.3447" cy="225.7969" fill="#B4A7E5" rx="11" ry="11" style="stroke:#181818;stroke-width:1;"/><path d="M323.2666,221.5625 L323.2666,219.4063 L330.6572,219.4063 L330.6572,221.5625 L328.1885,221.5625 L328.1885,229.6406 L330.6572,229.6406 L330.6572,231.7969 L323.2666,231.7969 L323.2666,229.6406 L325.7354,229.6406 L325.7354,221.5625 L323.2666,221.5625 Z " fill="#000000"/><text fill="#000000" font-family="sans-serif" font-size="14" font-style="italic" lengthAdjust="spacing" textLength="121.9053" x="347.8447" y="230.6436">PaymentStrategy</text><line style="stroke:#181818;stroke-width:0.5;" x1="252.5" x2="532.5947" y1="241.7969" y2="241.7969"/><line style="stroke:#181818;stroke-width:0.5;" x1="252.5" x2="532.5947" y1="249.7969" y2="249.7969"/><ellipse cx="262.5" cy="263.4453" fill="#84BE84" rx="3" ry="3" style="stroke:#038048;stroke-width:1;"/><text fill="#000000" font-family="sans-serif" font-size="14" lengthAdjust="spacing" textLength="256.0947" x="271.5" y="266.792">calculateFee(ticket : Ticket) : double</text></g><!--class HourlyPayment--><g class="entity" data-entity="HourlyPayment" data-source-line="61" data-uid="ent0024" id="entity_HourlyPayment"><rect fill="#F1F1F1" height="48" rx="2.5" ry="2.5" style="stroke:#181818;stroke-width:0.5;" width="139.8164" x="232.5" y="374.7969"/><ellipse cx="247.5" cy="390.7969" fill="#ADD1B2" rx="11" ry="11" style="stroke:#181818;stroke-width:1;"/><path d="M250.4688,396.4375 Q249.8906,396.7344 249.25,396.875 Q248.6094,397.0313 247.9063,397.0313 Q245.4063,397.0313 244.0781,395.3906 Q242.7656,393.7344 242.7656,390.6094 Q242.7656,387.4844 244.0781,385.8281 Q245.4063,384.1719 247.9063,384.1719 Q248.6094,384.1719 249.25,384.3281 Q249.9063,384.4844 250.4688,384.7813 L250.4688,387.5 Q249.8438,386.9219 249.25,386.6563 Q248.6563,386.375 248.0313,386.375 Q246.6875,386.375 246,387.4531 Q245.3125,388.5156 245.3125,390.6094 Q245.3125,392.7031 246,393.7813 Q246.6875,394.8438 248.0313,394.8438 Q248.6563,394.8438 249.25,394.5781 Q249.8438,394.2969 250.4688,393.7188 L250.4688,396.4375 Z " fill="#000000"/><text fill="#000000" font-family="sans-serif" font-size="14" lengthAdjust="spacing" textLength="107.8164" x="261.5" y="395.6436">HourlyPayment</text><line style="stroke:#181818;stroke-width:0.5;" x1="233.5" x2="371.3164" y1="406.7969" y2="406.7969"/><line style="stroke:#181818;stroke-width:0.5;" x1="233.5" x2="371.3164" y1="414.7969" y2="414.7969"/></g><!--class DailyPayment--><g class="entity" data-entity="DailyPayment" data-source-line="62" data-uid="ent0026" id="entity_DailyPayment"><rect fill="#F1F1F1" height="48" rx="2.5" ry="2.5" style="stroke:#181818;stroke-width:0.5;" width="129.3438" x="408" y="374.7969"/><ellipse cx="423" cy="390.7969" fill="#ADD1B2" rx="11" ry="11" style="stroke:#181818;stroke-width:1;"/><path d="M425.9688,396.4375 Q425.3906,396.7344 424.75,396.875 Q424.1094,397.0313 423.4063,397.0313 Q420.9063,397.0313 419.5781,395.3906 Q418.2656,393.7344 418.2656,390.6094 Q418.2656,387.4844 419.5781,385.8281 Q420.9063,384.1719 423.4063,384.1719 Q424.1094,384.1719 424.75,384.3281 Q425.4063,384.4844 425.9688,384.7813 L425.9688,387.5 Q425.3438,386.9219 424.75,386.6563 Q424.1563,386.375 423.5313,386.375 Q422.1875,386.375 421.5,387.4531 Q420.8125,388.5156 420.8125,390.6094 Q420.8125,392.7031 421.5,393.7813 Q422.1875,394.8438 423.5313,394.8438 Q424.1563,394.8438 424.75,394.5781 Q425.3438,394.2969 425.9688,393.7188 L425.9688,396.4375 Z " fill="#000000"/><text fill="#000000" font-family="sans-serif" font-size="14" lengthAdjust="spacing" textLength="97.3438" x="437" y="395.6436">DailyPayment</text><line style="stroke:#181818;stroke-width:0.5;" x1="409" x2="536.3438" y1="406.7969" y2="406.7969"/><line style="stroke:#181818;stroke-width:0.5;" x1="409" x2="536.3438" y1="414.7969" y2="414.7969"/></g><!--reverse link PowerSource to Combustion--><g class="link" data-entity-1="PowerSource" data-entity-2="Combustion" data-source-line="7" data-uid="lnk4" id="link_PowerSource_Combustion"><path d="M190.3442,719.5132 C179.1842,737.1732 173.45,746.2369 162.24,763.9769" fill="none" id="PowerSource-backto-Combustion" style="stroke:#181818;stroke-width:1;stroke-dasharray:7.0,7.0;"/><polygon fill="none" points="199.96,704.2969,185.2721,716.308,195.4164,722.7185,199.96,704.2969" style="stroke:#181818;stroke-width:1;"/></g><!--reverse link PowerSource to Electric--><g class="link" data-entity-1="PowerSource" data-entity-2="Electric" data-source-line="8" data-uid="lnk6" id="link_PowerSource_Electric"><path d="M238.9698,719.447 C250.2998,737.107 256.16,746.2369 267.54,763.9769" fill="none" id="PowerSource-backto-Electric" style="stroke:#181818;stroke-width:1;stroke-dasharray:7.0,7.0;"/><polygon fill="none" points="229.25,704.2969,233.9197,722.6869,244.0198,716.2071,229.25,704.2969" style="stroke:#181818;stroke-width:1;"/></g><!--reverse link Vehicle to Car--><g class="link" data-entity-1="Vehicle" data-entity-2="Car" data-source-line="15" data-uid="lnk9" id="link_Vehicle_Car"><path d="M364.791,613.3719 C357.231,633.0719 354.82,639.3669 348.38,656.1369" fill="none" id="Vehicle-backto-Car" style="stroke:#181818;stroke-width:1;"/><polygon fill="none" points="371.24,596.5669,359.1893,611.2222,370.3926,615.5216,371.24,596.5669" style="stroke:#181818;stroke-width:1;"/></g><!--reverse link Vehicle to Bike--><g class="link" data-entity-1="Vehicle" data-entity-2="Bike" data-source-line="16" data-uid="lnk11" id="link_Vehicle_Bike"><path d="M408.209,613.3719 C415.769,633.0719 418.18,639.3669 424.62,656.1369" fill="none" id="Vehicle-backto-Bike" style="stroke:#181818;stroke-width:1;"/><polygon fill="none" points="401.76,596.5669,402.6074,615.5216,413.8107,611.2222,401.76,596.5669" style="stroke:#181818;stroke-width:1;"/></g><!--reverse link Vehicle to Truck--><g class="link" data-entity-1="Vehicle" data-entity-2="Truck" data-source-line="17" data-uid="lnk13" id="link_Vehicle_Truck"><path d="M448.7838,607.9986 C472.7438,627.6986 486.93,639.3669 507.33,656.1369" fill="none" id="Vehicle-backto-Truck" style="stroke:#181818;stroke-width:1;"/><polygon fill="none" points="434.88,596.5669,444.9732,612.6332,452.5944,603.364,434.88,596.5669" style="stroke:#181818;stroke-width:1;"/></g><!--reverse link Vehicle to PowerSource--><g class="link" data-entity-1="Vehicle" data-entity-2="PowerSource" data-source-line="19" data-uid="lnk14" id="link_Vehicle_PowerSource"><path codeLine="19" d="M320.8845,603.5267 C293.2145,623.2267 270.57,639.3669 247.01,656.1369" fill="none" id="Vehicle-backto-PowerSource" style="stroke:#181818;stroke-width:1;"/><polygon fill="#181818" points="330.66,596.5669,323.4523,596.7883,320.8845,603.5267,328.0922,603.3053,330.66,596.5669" style="stroke:#181818;stroke-width:1;"/></g><!--reverse link ParkingLot to Level--><g class="link" data-entity-1="ParkingLot" data-entity-2="Level" data-source-line="45" data-uid="lnk19" id="link_ParkingLot_Level"><path codeLine="45" d="M197.7722,150.2147 C179.4022,169.4947 166.74,182.7969 149.24,201.1769" fill="none" id="ParkingLot-backto-Level" style="stroke:#181818;stroke-width:1;"/><polygon fill="#181818" points="206.05,141.5269,199.0152,143.1115,197.7722,150.2147,204.8071,148.63,206.05,141.5269" style="stroke:#181818;stroke-width:1;"/></g><!--reverse link Level to ParkingSpot--><g class="link" data-entity-1="Level" data-entity-2="ParkingSpot" data-source-line="46" data-uid="lnk20" id="link_Level_ParkingSpot"><path codeLine="46" d="M111.5,294.3069 C111.5,314.9369 111.5,328.3369 111.5,350.0569" fill="none" id="Level-backto-ParkingSpot" style="stroke:#181818;stroke-width:1;"/><polygon fill="#181818" points="111.5,282.3069,107.5,288.3069,111.5,294.3069,115.5,288.3069,111.5,282.3069" style="stroke:#181818;stroke-width:1;"/></g><!--reverse link ParkingSpot to Vehicle--><g class="link" data-entity-1="ParkingSpot" data-entity-2="Vehicle" data-source-line="47" data-uid="lnk21" id="link_ParkingSpot_Vehicle"><path codeLine="47" d="M206.334,453.2488 C244.854,474.9588 279.5,494.4869 316.16,515.1469" fill="none" id="ParkingSpot-backto-Vehicle" style="stroke:#181818;stroke-width:1;"/><polygon fill="none" points="195.88,447.3569,199.143,453.7875,206.334,453.2488,203.071,446.8182,195.88,447.3569" style="stroke:#181818;stroke-width:1;"/></g><!--reverse link PaymentStrategy to HourlyPayment--><g class="link" data-entity-1="PaymentStrategy" data-entity-2="HourlyPayment" data-source-line="61" data-uid="lnk25" id="link_PaymentStrategy_HourlyPayment"><path d="M365.2503,289.7323 C347.9903,319.4523 331.51,347.8469 316,374.5469" fill="none" id="PaymentStrategy-backto-HourlyPayment" style="stroke:#181818;stroke-width:1;stroke-dasharray:7.0,7.0;"/><polygon fill="none" points="374.29,274.1669,360.0618,286.7191,370.4388,292.7456,374.29,274.1669" style="stroke:#181818;stroke-width:1;"/></g><!--reverse link PaymentStrategy to DailyPayment--><g class="link" data-entity-1="PaymentStrategy" data-entity-2="DailyPayment" data-source-line="62" data-uid="lnk27" id="link_PaymentStrategy_DailyPayment"><path d="M416.9458,290.1619 C432.2858,319.8819 446.72,347.8469 460.5,374.5469" fill="none" id="PaymentStrategy-backto-DailyPayment" style="stroke:#181818;stroke-width:1;stroke-dasharray:7.0,7.0;"/><polygon fill="none" points="408.69,274.1669,411.6142,292.9139,422.2775,287.41,408.69,274.1669" style="stroke:#181818;stroke-width:1;"/></g><!--link Ticket to Vehicle--><g class="link" data-entity-1="Ticket" data-entity-2="Vehicle" data-source-line="64" data-uid="lnk28" id="link_Ticket_Vehicle"><path codeLine="64" d="M571.84,450.3369 C534.53,471.3569 497.087,492.461 462.097,512.181" fill="none" id="Ticket-to-Vehicle" style="stroke:#181818;stroke-width:1;"/><polygon fill="#181818" points="456.87,515.1269,466.6745,514.1927,461.2258,512.672,462.7466,507.2234,456.87,515.1269" style="stroke:#181818;stroke-width:1;"/></g><!--link ParkingLot to PaymentStrategy--><g class="link" data-entity-1="ParkingLot" data-entity-2="PaymentStrategy" data-source-line="65" data-uid="lnk29" id="link_ParkingLot_PaymentStrategy"><path codeLine="65" d="M297.28,141.5269 C318.67,163.8269 339.3759,185.4175 358.3359,205.1775" fill="none" id="ParkingLot-to-PaymentStrategy" style="stroke:#181818;stroke-width:1;"/><polygon fill="#181818" points="362.49,209.5069,359.1451,200.2434,359.0283,205.8991,353.3726,205.7822,362.49,209.5069" style="stroke:#181818;stroke-width:1;"/></g><!--SRC=[ZLFBRjim4BppAtXgqmRw0QCsaCXA8zXn3Ki9a2D5Rrp252cGL1gXwBztIT6ob0UGYqJk3cTdTqWdd0IwPUOer86kjQDBiEAW2FbAv_CvVSXkytIT5Nv3X79WdXZ70_eFc4At1jT_oJz2k6JMqbJNLMkTq8gAkf5GWt9s38wuJ09tHl2FK8HLrXd67Utn3_1RSEbBKPfGAJWe2rl97D0PBP197KAc6ScQJHZF4fcXyE90xGVQcBaMH_WWLPgM7z_ao4dMzoIPokzdjxtQhVBDJrgKk_kqlDzbOOWzOvou7tXi2fv1MbIz5jRzMFlT0XENj45aB7Jn70lEJXg-uR8K_0WkOE55k1FMXV2GzyYzRYivcaMe4ki_IQtDfgqhC8X4fqFKDjeDegBc0cEBCyae6gdyeNm_TSPrJV0AKoKkGqpONvotZG2FhRIMm9Jd1TNM0p9mfbSx_5xdgmn_VfehZnlDq3iGkY5zJy6Hip0o5ganDrZOErNcwIehwHUqxF4ksvGZe_hfnSxwcRxk3Q-lwKfH-mQNU2Vzia-W7U_5tzZeknazBjRv9u4LyD2X2xKlAMUIj_xAty2dpBt5koYxo3LvQ5Fw25yoyIaqYGD9aiMWVcI43xywyXy0]--></g></svg>