<svg xmlns="http://www.w3.org/2000/svg" xmlns:xlink="http://www.w3.org/1999/xlink" contentStyleType="text/css" data-diagram-type="CLASS" height="867px" preserveAspectRatio="none" style="width:861px;height:867px;background:#FFFFFF;" version="1.1" viewBox="0 0 861 867" width="861px" zoomAndPan="magnify"><title>Parking Lot Design</title><defs/><g><g class="title" data-source-line="1"><text fill="#000000" font-family="sans-serif" font-size="14" font-weight="bold" lengthAdjust="spacing" textLength="149.9258" x="349.0273" y="22.9951">Parking Lot Design</text></g><!--class PowerSource--><g class="entity" data-entity="PowerSource" data-source-line="4" data-uid="ent0002" id="entity_PowerSource"><rect fill="#F1F1F1" height="48" rx="2.5" ry="2.5" style="stroke:#181818;stroke-width:0.5;" width="123.2188" x="403.5" y="704.2969"/><ellipse cx="418.5" cy="720.2969" fill="#B4A7E5" rx="11" ry="11" style="stroke:#181818;stroke-width:1;"/><path d="M414.4219,716.0625 L414.4219,713.9063 L421.8125,713.9063 L421.8125,716.0625 L419.3438,716.0625 L419.3438,724.1406 L421.8125,724.1406 L421.8125,726.2969 L414.4219,726.2969 L414.4219,724.1406 L416.8906,724.1406 L416.8906,716.0625 L414.4219,716.0625 Z " fill="#000000"/><text fill="#000000" font-family="sans-serif" font-size="14" font-style="italic" lengthAdjust="spacing" textLength="91.2188" x="432.5" y="725.1436">PowerSource</text><line style="stroke:#181818;stroke-width:0.5;" x1="404.5" x2="525.7188" y1="736.2969" y2="736.2969"/><line style="stroke:#181818;stroke-width:0.5;" x1="404.5" x2="525.7188" y1="744.2969" y2="744.2969"/></g><!--class Combustion--><g class="entity" data-entity="Combustion" data-source-line="7" data-uid="ent0003" id="entity_Combustion"><rect fill="#F1F1F1" height="48" rx="2.5" ry="2.5" style="stroke:#181818;stroke-width:0.5;" width="115.8496" x="348" y="812.2969"/><ellipse cx="363" cy="828.2969" fill="#ADD1B2" rx="11" ry="11" style="stroke:#181818;stroke-width:1;"/><path d="M365.9688,833.9375 Q365.3906,834.2344 364.75,834.375 Q364.1094,834.5313 363.4063,834.5313 Q360.9063,834.5313 359.5781,832.8906 Q358.2656,831.2344 358.2656,828.1094 Q358.2656,824.9844 359.5781,823.3281 Q360.9063,821.6719 363.4063,821.6719 Q364.1094,821.6719 364.75,821.8281 Q365.4063,821.9844 365.9688,822.2813 L365.9688,825 Q365.3438,824.4219 364.75,824.1563 Q364.1563,823.875 363.5313,823.875 Q362.1875,823.875 361.5,824.9531 Q360.8125,826.0156 360.8125,828.1094 Q360.8125,830.2031 361.5,831.2813 Q362.1875,832.3438 363.5313,832.3438 Q364.1563,832.3438 364.75,832.0781 Q365.3438,831.7969 365.9688,831.2188 L365.9688,833.9375 Z " fill="#000000"/><text fill="#000000" font-family="sans-serif" font-size="14" lengthAdjust="spacing" textLength="83.8496" x="377" y="833.1436">Combustion</text><line style="stroke:#181818;stroke-width:0.5;" x1="349" x2="462.8496" y1="844.2969" y2="844.2969"/><line style="stroke:#181818;stroke-width:0.5;" x1="349" x2="462.8496" y1="852.2969" y2="852.2969"/></g><!--class EV--><g class="entity" data-entity="EV" data-source-line="8" data-uid="ent0005" id="entity_EV"><rect fill="#F1F1F1" height="48" rx="2.5" ry="2.5" style="stroke:#181818;stroke-width:0.5;" width="50.4229" x="499" y="812.2969"/><ellipse cx="514" cy="828.2969" fill="#ADD1B2" rx="11" ry="11" style="stroke:#181818;stroke-width:1;"/><path d="M516.9688,833.9375 Q516.3906,834.2344 515.75,834.375 Q515.1094,834.5313 514.4063,834.5313 Q511.9063,834.5313 510.5781,832.8906 Q509.2656,831.2344 509.2656,828.1094 Q509.2656,824.9844 510.5781,823.3281 Q511.9063,821.6719 514.4063,821.6719 Q515.1094,821.6719 515.75,821.8281 Q516.4063,821.9844 516.9688,822.2813 L516.9688,825 Q516.3438,824.4219 515.75,824.1563 Q515.1563,823.875 514.5313,823.875 Q513.1875,823.875 512.5,824.9531 Q511.8125,826.0156 511.8125,828.1094 Q511.8125,830.2031 512.5,831.2813 Q513.1875,832.3438 514.5313,832.3438 Q515.1563,832.3438 515.75,832.0781 Q516.3438,831.7969 516.9688,831.2188 L516.9688,833.9375 Z " fill="#000000"/><text fill="#000000" font-family="sans-serif" font-size="14" lengthAdjust="spacing" textLength="18.4229" x="528" y="833.1436">EV</text><line style="stroke:#181818;stroke-width:0.5;" x1="500" x2="548.4229" y1="844.2969" y2="844.2969"/><line style="stroke:#181818;stroke-width:0.5;" x1="500" x2="548.4229" y1="852.2969" y2="852.2969"/></g><!--class Vehicle--><g class="entity" data-entity="Vehicle" data-source-line="11" data-uid="ent0007" id="entity_Vehicle"><rect fill="#F1F1F1" height="96.8906" rx="2.5" ry="2.5" style="stroke:#181818;stroke-width:0.5;" width="222.499" x="526" y="547.2969"/><ellipse cx="607.4229" cy="563.2969" fill="#A9DCDF" rx="11" ry="11" style="stroke:#181818;stroke-width:1;"/><path d="M607.5322,558.6406 L606.376,563.7188 L608.7041,563.7188 L607.5322,558.6406 Z M606.0479,556.4063 L609.0322,556.4063 L612.3916,568.7969 L609.9385,568.7969 L609.1729,565.7344 L605.8916,565.7344 L605.1416,568.7969 L602.7041,568.7969 L606.0479,556.4063 Z " fill="#000000"/><text fill="#000000" font-family="sans-serif" font-size="14" font-style="italic" lengthAdjust="spacing" textLength="51.1533" x="627.9229" y="568.1436">Vehicle</text><line style="stroke:#181818;stroke-width:0.5;" x1="527" x2="747.499" y1="579.2969" y2="579.2969"/><rect fill="none" height="6" style="stroke:#C82930;stroke-width:1;" width="6" x="534" y="589.9453"/><text fill="#000000" font-family="sans-serif" font-size="14" lengthAdjust="spacing" textLength="139.2822" x="546" y="596.292">licensePlate : String</text><rect fill="none" height="6" style="stroke:#C82930;stroke-width:1;" width="6" x="534" y="606.2422"/><text fill="#000000" font-family="sans-serif" font-size="14" lengthAdjust="spacing" textLength="196.499" x="546" y="612.5889">powerSource : PowerSource</text><line style="stroke:#181818;stroke-width:0.5;" x1="527" x2="747.499" y1="619.8906" y2="619.8906"/><ellipse cx="537" cy="633.5391" fill="#84BE84" rx="3" ry="3" style="stroke:#038048;stroke-width:1;"/><text fill="#000000" font-family="sans-serif" font-size="14" lengthAdjust="spacing" textLength="123.6484" x="546" y="636.8857">getType() : String</text></g><!--class Car--><g class="entity" data-entity="Car" data-source-line="17" data-uid="ent0008" id="entity_Car"><rect fill="#F1F1F1" height="48" rx="2.5" ry="2.5" style="stroke:#181818;stroke-width:0.5;" width="56.1104" x="562" y="704.2969"/><ellipse cx="577" cy="720.2969" fill="#ADD1B2" rx="11" ry="11" style="stroke:#181818;stroke-width:1;"/><path d="M579.9688,725.9375 Q579.3906,726.2344 578.75,726.375 Q578.1094,726.5313 577.4063,726.5313 Q574.9063,726.5313 573.5781,724.8906 Q572.2656,723.2344 572.2656,720.1094 Q572.2656,716.9844 573.5781,715.3281 Q574.9063,713.6719 577.4063,713.6719 Q578.1094,713.6719 578.75,713.8281 Q579.4063,713.9844 579.9688,714.2813 L579.9688,717 Q579.3438,716.4219 578.75,716.1563 Q578.1563,715.875 577.5313,715.875 Q576.1875,715.875 575.5,716.9531 Q574.8125,718.0156 574.8125,720.1094 Q574.8125,722.2031 575.5,723.2813 Q576.1875,724.3438 577.5313,724.3438 Q578.1563,724.3438 578.75,724.0781 Q579.3438,723.7969 579.9688,723.2188 L579.9688,725.9375 Z " fill="#000000"/><text fill="#000000" font-family="sans-serif" font-size="14" lengthAdjust="spacing" textLength="24.1104" x="591" y="725.1436">Car</text><line style="stroke:#181818;stroke-width:0.5;" x1="563" x2="617.1104" y1="736.2969" y2="736.2969"/><line style="stroke:#181818;stroke-width:0.5;" x1="563" x2="617.1104" y1="744.2969" y2="744.2969"/></g><!--class Bike--><g class="entity" data-entity="Bike" data-source-line="18" data-uid="ent0010" id="entity_Bike"><rect fill="#F1F1F1" height="48" rx="2.5" ry="2.5" style="stroke:#181818;stroke-width:0.5;" width="62.2148" x="653" y="704.2969"/><ellipse cx="668" cy="720.2969" fill="#ADD1B2" rx="11" ry="11" style="stroke:#181818;stroke-width:1;"/><path d="M670.9688,725.9375 Q670.3906,726.2344 669.75,726.375 Q669.1094,726.5313 668.4063,726.5313 Q665.9063,726.5313 664.5781,724.8906 Q663.2656,723.2344 663.2656,720.1094 Q663.2656,716.9844 664.5781,715.3281 Q665.9063,713.6719 668.4063,713.6719 Q669.1094,713.6719 669.75,713.8281 Q670.4063,713.9844 670.9688,714.2813 L670.9688,717 Q670.3438,716.4219 669.75,716.1563 Q669.1563,715.875 668.5313,715.875 Q667.1875,715.875 666.5,716.9531 Q665.8125,718.0156 665.8125,720.1094 Q665.8125,722.2031 666.5,723.2813 Q667.1875,724.3438 668.5313,724.3438 Q669.1563,724.3438 669.75,724.0781 Q670.3438,723.7969 670.9688,723.2188 L670.9688,725.9375 Z " fill="#000000"/><text fill="#000000" font-family="sans-serif" font-size="14" lengthAdjust="spacing" textLength="30.2148" x="682" y="725.1436">Bike</text><line style="stroke:#181818;stroke-width:0.5;" x1="654" x2="714.2148" y1="736.2969" y2="736.2969"/><line style="stroke:#181818;stroke-width:0.5;" x1="654" x2="714.2148" y1="744.2969" y2="744.2969"/></g><!--class Truck--><g class="entity" data-entity="Truck" data-source-line="19" data-uid="ent0012" id="entity_Truck"><rect fill="#F1F1F1" height="48" rx="2.5" ry="2.5" style="stroke:#181818;stroke-width:0.5;" width="70.9854" x="750.5" y="704.2969"/><ellipse cx="765.5" cy="720.2969" fill="#ADD1B2" rx="11" ry="11" style="stroke:#181818;stroke-width:1;"/><path d="M768.4688,725.9375 Q767.8906,726.2344 767.25,726.375 Q766.6094,726.5313 765.9063,726.5313 Q763.4063,726.5313 762.0781,724.8906 Q760.7656,723.2344 760.7656,720.1094 Q760.7656,716.9844 762.0781,715.3281 Q763.4063,713.6719 765.9063,713.6719 Q766.6094,713.6719 767.25,713.8281 Q767.9063,713.9844 768.4688,714.2813 L768.4688,717 Q767.8438,716.4219 767.25,716.1563 Q766.6563,715.875 766.0313,715.875 Q764.6875,715.875 764,716.9531 Q763.3125,718.0156 763.3125,720.1094 Q763.3125,722.2031 764,723.2813 Q764.6875,724.3438 766.0313,724.3438 Q766.6563,724.3438 767.25,724.0781 Q767.8438,723.7969 768.4688,723.2188 L768.4688,725.9375 Z " fill="#000000"/><text fill="#000000" font-family="sans-serif" font-size="14" lengthAdjust="spacing" textLength="38.9854" x="779.5" y="725.1436">Truck</text><line style="stroke:#181818;stroke-width:0.5;" x1="751.5" x2="820.4854" y1="736.2969" y2="736.2969"/><line style="stroke:#181818;stroke-width:0.5;" x1="751.5" x2="820.4854" y1="744.2969" y2="744.2969"/></g><!--class ParkingSpot--><g class="entity" data-entity="ParkingSpot" data-source-line="24" data-uid="ent0015" id="entity_ParkingSpot"><rect fill="#F1F1F1" height="113.1875" rx="2.5" ry="2.5" style="stroke:#181818;stroke-width:0.5;" width="247.5254" x="53" y="374.2969"/><ellipse cx="130.3315" cy="390.2969" fill="#A9DCDF" rx="11" ry="11" style="stroke:#181818;stroke-width:1;"/><path d="M130.4409,385.6406 L129.2847,390.7188 L131.6128,390.7188 L130.4409,385.6406 Z M128.9565,383.4063 L131.9409,383.4063 L135.3003,395.7969 L132.8472,395.7969 L132.0815,392.7344 L128.8003,392.7344 L128.0503,395.7969 L125.6128,395.7969 L128.9565,383.4063 Z " fill="#000000"/><text fill="#000000" font-family="sans-serif" font-size="14" font-style="italic" lengthAdjust="spacing" textLength="84.3623" x="150.8315" y="395.1436">ParkingSpot</text><line style="stroke:#181818;stroke-width:0.5;" x1="54" x2="299.5254" y1="406.2969" y2="406.2969"/><rect fill="none" height="6" style="stroke:#C82930;stroke-width:1;" width="6" x="61" y="416.9453"/><text fill="#000000" font-family="sans-serif" font-size="14" lengthAdjust="spacing" textLength="98.6494" x="73" y="423.292">spotId : String</text><rect fill="none" height="6" style="stroke:#C82930;stroke-width:1;" width="6" x="61" y="433.2422"/><text fill="#000000" font-family="sans-serif" font-size="14" lengthAdjust="spacing" textLength="146.3369" x="73" y="439.5889">isOccupied : boolean</text><line style="stroke:#181818;stroke-width:0.5;" x1="54" x2="299.5254" y1="446.8906" y2="446.8906"/><ellipse cx="64" cy="460.5391" fill="#84BE84" rx="3" ry="3" style="stroke:#038048;stroke-width:1;"/><text fill="#000000" font-family="sans-serif" font-size="14" lengthAdjust="spacing" textLength="221.5254" x="73" y="463.8857">assignVehicle(vehicle : Vehicle)</text><ellipse cx="64" cy="476.8359" fill="#84BE84" rx="3" ry="3" style="stroke:#038048;stroke-width:1;"/><text fill="#000000" font-family="sans-serif" font-size="14" lengthAdjust="spacing" textLength="70.6631" x="73" y="480.1826">freeSpot()</text></g><!--class CarSpot--><g class="entity" data-entity="CarSpot" data-source-line="31" data-uid="ent0016" id="entity_CarSpot"><rect fill="#F1F1F1" height="48" rx="2.5" ry="2.5" style="stroke:#181818;stroke-width:0.5;" width="87.9385" x="7" y="571.7969"/><ellipse cx="22" cy="587.7969" fill="#ADD1B2" rx="11" ry="11" style="stroke:#181818;stroke-width:1;"/><path d="M24.9688,593.4375 Q24.3906,593.7344 23.75,593.875 Q23.1094,594.0313 22.4063,594.0313 Q19.9063,594.0313 18.5781,592.3906 Q17.2656,590.7344 17.2656,587.6094 Q17.2656,584.4844 18.5781,582.8281 Q19.9063,581.1719 22.4063,581.1719 Q23.1094,581.1719 23.75,581.3281 Q24.4063,581.4844 24.9688,581.7813 L24.9688,584.5 Q24.3438,583.9219 23.75,583.6563 Q23.1563,583.375 22.5313,583.375 Q21.1875,583.375 20.5,584.4531 Q19.8125,585.5156 19.8125,587.6094 Q19.8125,589.7031 20.5,590.7813 Q21.1875,591.8438 22.5313,591.8438 Q23.1563,591.8438 23.75,591.5781 Q24.3438,591.2969 24.9688,590.7188 L24.9688,593.4375 Z " fill="#000000"/><text fill="#000000" font-family="sans-serif" font-size="14" lengthAdjust="spacing" textLength="55.9385" x="36" y="592.6436">CarSpot</text><line style="stroke:#181818;stroke-width:0.5;" x1="8" x2="93.9385" y1="603.7969" y2="603.7969"/><line style="stroke:#181818;stroke-width:0.5;" x1="8" x2="93.9385" y1="611.7969" y2="611.7969"/></g><!--class BikeSpot--><g class="entity" data-entity="BikeSpot" data-source-line="32" data-uid="ent0018" id="entity_BikeSpot"><rect fill="#F1F1F1" height="48" rx="2.5" ry="2.5" style="stroke:#181818;stroke-width:0.5;" width="94.043" x="130" y="571.7969"/><ellipse cx="145" cy="587.7969" fill="#ADD1B2" rx="11" ry="11" style="stroke:#181818;stroke-width:1;"/><path d="M147.9688,593.4375 Q147.3906,593.7344 146.75,593.875 Q146.1094,594.0313 145.4063,594.0313 Q142.9063,594.0313 141.5781,592.3906 Q140.2656,590.7344 140.2656,587.6094 Q140.2656,584.4844 141.5781,582.8281 Q142.9063,581.1719 145.4063,581.1719 Q146.1094,581.1719 146.75,581.3281 Q147.4063,581.4844 147.9688,581.7813 L147.9688,584.5 Q147.3438,583.9219 146.75,583.6563 Q146.1563,583.375 145.5313,583.375 Q144.1875,583.375 143.5,584.4531 Q142.8125,585.5156 142.8125,587.6094 Q142.8125,589.7031 143.5,590.7813 Q144.1875,591.8438 145.5313,591.8438 Q146.1563,591.8438 146.75,591.5781 Q147.3438,591.2969 147.9688,590.7188 L147.9688,593.4375 Z " fill="#000000"/><text fill="#000000" font-family="sans-serif" font-size="14" lengthAdjust="spacing" textLength="62.043" x="159" y="592.6436">BikeSpot</text><line style="stroke:#181818;stroke-width:0.5;" x1="131" x2="223.043" y1="603.7969" y2="603.7969"/><line style="stroke:#181818;stroke-width:0.5;" x1="131" x2="223.043" y1="611.7969" y2="611.7969"/></g><!--class TruckSpot--><g class="entity" data-entity="TruckSpot" data-source-line="33" data-uid="ent0020" id="entity_TruckSpot"><rect fill="#F1F1F1" height="48" rx="2.5" ry="2.5" style="stroke:#181818;stroke-width:0.5;" width="102.8135" x="259.5" y="571.7969"/><ellipse cx="274.5" cy="587.7969" fill="#ADD1B2" rx="11" ry="11" style="stroke:#181818;stroke-width:1;"/><path d="M277.4688,593.4375 Q276.8906,593.7344 276.25,593.875 Q275.6094,594.0313 274.9063,594.0313 Q272.4063,594.0313 271.0781,592.3906 Q269.7656,590.7344 269.7656,587.6094 Q269.7656,584.4844 271.0781,582.8281 Q272.4063,581.1719 274.9063,581.1719 Q275.6094,581.1719 276.25,581.3281 Q276.9063,581.4844 277.4688,581.7813 L277.4688,584.5 Q276.8438,583.9219 276.25,583.6563 Q275.6563,583.375 275.0313,583.375 Q273.6875,583.375 273,584.4531 Q272.3125,585.5156 272.3125,587.6094 Q272.3125,589.7031 273,590.7813 Q273.6875,591.8438 275.0313,591.8438 Q275.6563,591.8438 276.25,591.5781 Q276.8438,591.2969 277.4688,590.7188 L277.4688,593.4375 Z " fill="#000000"/><text fill="#000000" font-family="sans-serif" font-size="14" lengthAdjust="spacing" textLength="70.8135" x="288.5" y="592.6436">TruckSpot</text><line style="stroke:#181818;stroke-width:0.5;" x1="260.5" x2="361.3135" y1="603.7969" y2="603.7969"/><line style="stroke:#181818;stroke-width:0.5;" x1="260.5" x2="361.3135" y1="611.7969" y2="611.7969"/></g><!--class Level--><g class="entity" data-entity="Level" data-source-line="38" data-uid="ent0023" id="entity_Level"><rect fill="#F1F1F1" height="113.1875" rx="2.5" ry="2.5" style="stroke:#181818;stroke-width:0.5;" width="274.1514" x="40" y="201.2969"/><ellipse cx="154.2251" cy="217.2969" fill="#ADD1B2" rx="11" ry="11" style="stroke:#181818;stroke-width:1;"/><path d="M157.1938,222.9375 Q156.6157,223.2344 155.9751,223.375 Q155.3345,223.5313 154.6313,223.5313 Q152.1313,223.5313 150.8032,221.8906 Q149.4907,220.2344 149.4907,217.1094 Q149.4907,213.9844 150.8032,212.3281 Q152.1313,210.6719 154.6313,210.6719 Q155.3345,210.6719 155.9751,210.8281 Q156.6313,210.9844 157.1938,211.2813 L157.1938,214 Q156.5688,213.4219 155.9751,213.1563 Q155.3813,212.875 154.7563,212.875 Q153.4126,212.875 152.7251,213.9531 Q152.0376,215.0156 152.0376,217.1094 Q152.0376,219.2031 152.7251,220.2813 Q153.4126,221.3438 154.7563,221.3438 Q155.3813,221.3438 155.9751,221.0781 Q156.5688,220.7969 157.1938,220.2188 L157.1938,222.9375 Z " fill="#000000"/><text fill="#000000" font-family="sans-serif" font-size="14" lengthAdjust="spacing" textLength="37.2012" x="174.7251" y="222.1436">Level</text><line style="stroke:#181818;stroke-width:0.5;" x1="41" x2="313.1514" y1="233.2969" y2="233.2969"/><rect fill="none" height="6" style="stroke:#C82930;stroke-width:1;" width="6" x="48" y="243.9453"/><text fill="#000000" font-family="sans-serif" font-size="14" lengthAdjust="spacing" textLength="119.8135" x="60" y="250.292">floorNumber : int</text><rect fill="none" height="6" style="stroke:#C82930;stroke-width:1;" width="6" x="48" y="260.2422"/><text fill="#000000" font-family="sans-serif" font-size="14" lengthAdjust="spacing" textLength="183.4424" x="60" y="266.5889">spots : List&lt;ParkingSpot&gt;</text><line style="stroke:#181818;stroke-width:0.5;" x1="41" x2="313.1514" y1="273.8906" y2="273.8906"/><ellipse cx="51" cy="287.5391" fill="#84BE84" rx="3" ry="3" style="stroke:#038048;stroke-width:1;"/><text fill="#000000" font-family="sans-serif" font-size="14" lengthAdjust="spacing" textLength="248.1514" x="60" y="290.8857">findAvailableSpot(vehicle : Vehicle)</text><ellipse cx="51" cy="303.8359" fill="#84BE84" rx="3" ry="3" style="stroke:#038048;stroke-width:1;"/><text fill="#000000" font-family="sans-serif" font-size="14" lengthAdjust="spacing" textLength="116.4023" x="60" y="307.1826">isFull() : boolean</text></g><!--class ParkingLot--><g class="entity" data-entity="ParkingLot" data-source-line="45" data-uid="ent0024" id="entity_ParkingLot"><rect fill="#F1F1F1" height="96.8906" rx="2.5" ry="2.5" style="stroke:#181818;stroke-width:0.5;" width="537.7109" x="64" y="44.2969"/><ellipse cx="291.4111" cy="60.2969" fill="#ADD1B2" rx="11" ry="11" style="stroke:#181818;stroke-width:1;"/><path d="M294.3799,65.9375 Q293.8018,66.2344 293.1611,66.375 Q292.5205,66.5313 291.8174,66.5313 Q289.3174,66.5313 287.9893,64.8906 Q286.6768,63.2344 286.6768,60.1094 Q286.6768,56.9844 287.9893,55.3281 Q289.3174,53.6719 291.8174,53.6719 Q292.5205,53.6719 293.1611,53.8281 Q293.8174,53.9844 294.3799,54.2813 L294.3799,57 Q293.7549,56.4219 293.1611,56.1563 Q292.5674,55.875 291.9424,55.875 Q290.5986,55.875 289.9111,56.9531 Q289.2236,58.0156 289.2236,60.1094 Q289.2236,62.2031 289.9111,63.2813 Q290.5986,64.3438 291.9424,64.3438 Q292.5674,64.3438 293.1611,64.0781 Q293.7549,63.7969 294.3799,63.2188 L294.3799,65.9375 Z " fill="#000000"/><text fill="#000000" font-family="sans-serif" font-size="14" lengthAdjust="spacing" textLength="74.3887" x="311.9111" y="65.1436">ParkingLot</text><line style="stroke:#181818;stroke-width:0.5;" x1="65" x2="600.7109" y1="76.2969" y2="76.2969"/><rect fill="none" height="6" style="stroke:#C82930;stroke-width:1;" width="6" x="72" y="86.9453"/><text fill="#000000" font-family="sans-serif" font-size="14" lengthAdjust="spacing" textLength="139.3369" x="84" y="93.292">levels : List&lt;Level&gt;</text><line style="stroke:#181818;stroke-width:0.5;" x1="65" x2="600.7109" y1="100.5938" y2="100.5938"/><ellipse cx="75" cy="114.2422" fill="#84BE84" rx="3" ry="3" style="stroke:#038048;stroke-width:1;"/><text fill="#000000" font-family="sans-serif" font-size="14" lengthAdjust="spacing" textLength="264.0039" x="84" y="117.5889">parkVehicle(vehicle : Vehicle) : Ticket</text><ellipse cx="75" cy="130.5391" fill="#84BE84" rx="3" ry="3" style="stroke:#038048;stroke-width:1;"/><text fill="#000000" font-family="sans-serif" font-size="14" lengthAdjust="spacing" textLength="511.7109" x="84" y="133.8857">exitVehicle(ticket : Ticket, paymentStrategy : PaymentStrategy) : double</text></g><!--class Ticket--><g class="entity" data-entity="Ticket" data-source-line="56" data-uid="ent0027" id="entity_Ticket"><rect fill="#F1F1F1" height="113.1875" rx="2.5" ry="2.5" style="stroke:#181818;stroke-width:0.5;" width="179.4805" x="675.5" y="374.2969"/><ellipse cx="739.8159" cy="390.2969" fill="#ADD1B2" rx="11" ry="11" style="stroke:#181818;stroke-width:1;"/><path d="M742.7847,395.9375 Q742.2065,396.2344 741.5659,396.375 Q740.9253,396.5313 740.2222,396.5313 Q737.7222,396.5313 736.394,394.8906 Q735.0815,393.2344 735.0815,390.1094 Q735.0815,386.9844 736.394,385.3281 Q737.7222,383.6719 740.2222,383.6719 Q740.9253,383.6719 741.5659,383.8281 Q742.2222,383.9844 742.7847,384.2813 L742.7847,387 Q742.1597,386.4219 741.5659,386.1563 Q740.9722,385.875 740.3472,385.875 Q739.0034,385.875 738.3159,386.9531 Q737.6284,388.0156 737.6284,390.1094 Q737.6284,392.2031 738.3159,393.2813 Q739.0034,394.3438 740.3472,394.3438 Q740.9722,394.3438 741.5659,394.0781 Q742.1597,393.7969 742.7847,393.2188 L742.7847,395.9375 Z " fill="#000000"/><text fill="#000000" font-family="sans-serif" font-size="14" lengthAdjust="spacing" textLength="42.3486" x="760.3159" y="395.1436">Ticket</text><line style="stroke:#181818;stroke-width:0.5;" x1="676.5" x2="853.9805" y1="406.2969" y2="406.2969"/><rect fill="none" height="6" style="stroke:#C82930;stroke-width:1;" width="6" x="683.5" y="416.9453"/><text fill="#000000" font-family="sans-serif" font-size="14" lengthAdjust="spacing" textLength="107.7002" x="695.5" y="423.292">ticketId : String</text><rect fill="none" height="6" style="stroke:#C82930;stroke-width:1;" width="6" x="683.5" y="433.2422"/><text fill="#000000" font-family="sans-serif" font-size="14" lengthAdjust="spacing" textLength="153.4805" x="695.5" y="439.5889">entryTime : DateTime</text><rect fill="none" height="6" style="stroke:#C82930;stroke-width:1;" width="6" x="683.5" y="449.5391"/><text fill="#000000" font-family="sans-serif" font-size="14" lengthAdjust="spacing" textLength="142.7412" x="695.5" y="455.8857">exitTime : DateTime</text><rect fill="none" height="6" style="stroke:#C82930;stroke-width:1;" width="6" x="683.5" y="465.8359"/><text fill="#000000" font-family="sans-serif" font-size="14" lengthAdjust="spacing" textLength="114.6318" x="695.5" y="472.1826">vehicle : Vehicle</text><line style="stroke:#181818;stroke-width:0.5;" x1="676.5" x2="853.9805" y1="479.4844" y2="479.4844"/></g><!--class PaymentStrategy--><g class="entity" data-entity="PaymentStrategy" data-source-line="63" data-uid="ent0028" id="entity_PaymentStrategy"><rect fill="#F1F1F1" height="64.2969" rx="2.5" ry="2.5" style="stroke:#181818;stroke-width:0.5;" width="282.0947" x="349" y="225.7969"/><ellipse cx="424.8447" cy="241.7969" fill="#B4A7E5" rx="11" ry="11" style="stroke:#181818;stroke-width:1;"/><path d="M420.7666,237.5625 L420.7666,235.4063 L428.1572,235.4063 L428.1572,237.5625 L425.6885,237.5625 L425.6885,245.6406 L428.1572,245.6406 L428.1572,247.7969 L420.7666,247.7969 L420.7666,245.6406 L423.2354,245.6406 L423.2354,237.5625 L420.7666,237.5625 Z " fill="#000000"/><text fill="#000000" font-family="sans-serif" font-size="14" font-style="italic" lengthAdjust="spacing" textLength="121.9053" x="445.3447" y="246.6436">PaymentStrategy</text><line style="stroke:#181818;stroke-width:0.5;" x1="350" x2="630.0947" y1="257.7969" y2="257.7969"/><line style="stroke:#181818;stroke-width:0.5;" x1="350" x2="630.0947" y1="265.7969" y2="265.7969"/><ellipse cx="360" cy="279.4453" fill="#84BE84" rx="3" ry="3" style="stroke:#038048;stroke-width:1;"/><text fill="#000000" font-family="sans-serif" font-size="14" lengthAdjust="spacing" textLength="256.0947" x="369" y="282.792">calculateFee(ticket : Ticket) : double</text></g><!--class HourlyPayment--><g class="entity" data-entity="HourlyPayment" data-source-line="67" data-uid="ent0029" id="entity_HourlyPayment"><rect fill="#F1F1F1" height="48" rx="2.5" ry="2.5" style="stroke:#181818;stroke-width:0.5;" width="139.8164" x="336" y="406.7969"/><ellipse cx="351" cy="422.7969" fill="#ADD1B2" rx="11" ry="11" style="stroke:#181818;stroke-width:1;"/><path d="M353.9688,428.4375 Q353.3906,428.7344 352.75,428.875 Q352.1094,429.0313 351.4063,429.0313 Q348.9063,429.0313 347.5781,427.3906 Q346.2656,425.7344 346.2656,422.6094 Q346.2656,419.4844 347.5781,417.8281 Q348.9063,416.1719 351.4063,416.1719 Q352.1094,416.1719 352.75,416.3281 Q353.4063,416.4844 353.9688,416.7813 L353.9688,419.5 Q353.3438,418.9219 352.75,418.6563 Q352.1563,418.375 351.5313,418.375 Q350.1875,418.375 349.5,419.4531 Q348.8125,420.5156 348.8125,422.6094 Q348.8125,424.7031 349.5,425.7813 Q350.1875,426.8438 351.5313,426.8438 Q352.1563,426.8438 352.75,426.5781 Q353.3438,426.2969 353.9688,425.7188 L353.9688,428.4375 Z " fill="#000000"/><text fill="#000000" font-family="sans-serif" font-size="14" lengthAdjust="spacing" textLength="107.8164" x="365" y="427.6436">HourlyPayment</text><line style="stroke:#181818;stroke-width:0.5;" x1="337" x2="474.8164" y1="438.7969" y2="438.7969"/><line style="stroke:#181818;stroke-width:0.5;" x1="337" x2="474.8164" y1="446.7969" y2="446.7969"/></g><!--class DailyPayment--><g class="entity" data-entity="DailyPayment" data-source-line="68" data-uid="ent0031" id="entity_DailyPayment"><rect fill="#F1F1F1" height="48" rx="2.5" ry="2.5" style="stroke:#181818;stroke-width:0.5;" width="129.3438" x="511.5" y="406.7969"/><ellipse cx="526.5" cy="422.7969" fill="#ADD1B2" rx="11" ry="11" style="stroke:#181818;stroke-width:1;"/><path d="M529.4688,428.4375 Q528.8906,428.7344 528.25,428.875 Q527.6094,429.0313 526.9063,429.0313 Q524.4063,429.0313 523.0781,427.3906 Q521.7656,425.7344 521.7656,422.6094 Q521.7656,419.4844 523.0781,417.8281 Q524.4063,416.1719 526.9063,416.1719 Q527.6094,416.1719 528.25,416.3281 Q528.9063,416.4844 529.4688,416.7813 L529.4688,419.5 Q528.8438,418.9219 528.25,418.6563 Q527.6563,418.375 527.0313,418.375 Q525.6875,418.375 525,419.4531 Q524.3125,420.5156 524.3125,422.6094 Q524.3125,424.7031 525,425.7813 Q525.6875,426.8438 527.0313,426.8438 Q527.6563,426.8438 528.25,426.5781 Q528.8438,426.2969 529.4688,425.7188 L529.4688,428.4375 Z " fill="#000000"/><text fill="#000000" font-family="sans-serif" font-size="14" lengthAdjust="spacing" textLength="97.3438" x="540.5" y="427.6436">DailyPayment</text><line style="stroke:#181818;stroke-width:0.5;" x1="512.5" x2="639.8438" y1="438.7969" y2="438.7969"/><line style="stroke:#181818;stroke-width:0.5;" x1="512.5" x2="639.8438" y1="446.7969" y2="446.7969"/></g><!--reverse link PowerSource to Combustion--><g class="link" data-entity-1="PowerSource" data-entity-2="Combustion" data-source-line="7" data-uid="lnk4" id="link_PowerSource_Combustion"><path d="M443.4456,768.0246 C433.6156,785.6846 428.85,794.2369 418.98,811.9769" fill="none" id="PowerSource-backto-Combustion" style="stroke:#181818;stroke-width:1;stroke-dasharray:7.0,7.0;"/><polygon fill="none" points="452.2,752.2969,438.203,765.1064,448.6881,770.9427,452.2,752.2969" style="stroke:#181818;stroke-width:1;"/></g><!--reverse link PowerSource to EV--><g class="link" data-entity-1="PowerSource" data-entity-2="EV" data-source-line="8" data-uid="lnk6" id="link_PowerSource_EV"><path d="M486.5544,768.0246 C496.3844,785.6846 501.15,794.2369 511.02,811.9769" fill="none" id="PowerSource-backto-EV" style="stroke:#181818;stroke-width:1;stroke-dasharray:7.0,7.0;"/><polygon fill="none" points="477.8,752.2969,481.3119,770.9427,491.797,765.1064,477.8,752.2969" style="stroke:#181818;stroke-width:1;"/></g><!--reverse link Vehicle to Car--><g class="link" data-entity-1="Vehicle" data-entity-2="Car" data-source-line="17" data-uid="lnk9" id="link_Vehicle_Car"><path d="M613.6677,661.5809 C606.3777,681.8109 604.33,687.4969 598.41,703.9569" fill="none" id="Vehicle-backto-Car" style="stroke:#181818;stroke-width:1;"/><polygon fill="none" points="619.77,644.6469,608.023,659.5468,619.3124,663.615,619.77,644.6469" style="stroke:#181818;stroke-width:1;"/></g><!--reverse link Vehicle to Bike--><g class="link" data-entity-1="Vehicle" data-entity-2="Bike" data-source-line="18" data-uid="lnk11" id="link_Vehicle_Bike"><path d="M660.3323,661.5809 C667.6223,681.8109 669.67,687.4969 675.59,703.9569" fill="none" id="Vehicle-backto-Bike" style="stroke:#181818;stroke-width:1;"/><polygon fill="none" points="654.23,644.6469,654.6876,663.615,665.977,659.5468,654.23,644.6469" style="stroke:#181818;stroke-width:1;"/></g><!--reverse link Vehicle to Truck--><g class="link" data-entity-1="Vehicle" data-entity-2="Truck" data-source-line="19" data-uid="lnk13" id="link_Vehicle_Truck"><path d="M705.1788,656.5087 C728.2688,676.7387 740.56,687.4969 759.35,703.9569" fill="none" id="Vehicle-backto-Truck" style="stroke:#181818;stroke-width:1;"/><polygon fill="none" points="691.64,644.6469,701.2248,661.0216,709.1327,651.9958,691.64,644.6469" style="stroke:#181818;stroke-width:1;"/></g><!--reverse link Vehicle to PowerSource--><g class="link" data-entity-1="Vehicle" data-entity-2="PowerSource" data-source-line="21" data-uid="lnk14" id="link_Vehicle_PowerSource"><path codeLine="21" d="M564.3719,651.9024 C537.7219,672.1324 517.45,687.4969 495.76,703.9569" fill="none" id="Vehicle-backto-PowerSource" style="stroke:#181818;stroke-width:1;"/><polygon fill="#181818" points="573.93,644.6469,566.7324,645.0886,564.3719,651.9024,571.5695,651.4607,573.93,644.6469" style="stroke:#181818;stroke-width:1;"/></g><!--reverse link ParkingSpot to CarSpot--><g class="link" data-entity-1="ParkingSpot" data-entity-2="CarSpot" data-source-line="31" data-uid="lnk17" id="link_ParkingSpot_CarSpot"><path d="M122.9813,501.6779 C100.7413,530.4479 85.8,549.7869 68.91,571.6169" fill="none" id="ParkingSpot-backto-CarSpot" style="stroke:#181818;stroke-width:1;"/><polygon fill="none" points="133.99,487.4369,118.2342,498.0084,127.7283,505.3475,133.99,487.4369" style="stroke:#181818;stroke-width:1;"/></g><!--reverse link ParkingSpot to BikeSpot--><g class="link" data-entity-1="ParkingSpot" data-entity-2="BikeSpot" data-source-line="32" data-uid="lnk19" id="link_ParkingSpot_BikeSpot"><path d="M177,505.4369 C177,534.2069 177,549.7869 177,571.6169" fill="none" id="ParkingSpot-backto-BikeSpot" style="stroke:#181818;stroke-width:1;"/><polygon fill="none" points="177,487.4369,171,505.4369,183,505.4369,177,487.4369" style="stroke:#181818;stroke-width:1;"/></g><!--reverse link ParkingSpot to TruckSpot--><g class="link" data-entity-1="ParkingSpot" data-entity-2="TruckSpot" data-source-line="33" data-uid="lnk21" id="link_ParkingSpot_TruckSpot"><path d="M234.1732,501.3394 C257.8332,530.1094 274,549.7869 291.95,571.6169" fill="none" id="ParkingSpot-backto-TruckSpot" style="stroke:#181818;stroke-width:1;"/><polygon fill="none" points="222.74,487.4369,229.5391,505.1505,238.8074,497.5283,222.74,487.4369" style="stroke:#181818;stroke-width:1;"/></g><!--reverse link ParkingSpot to Vehicle--><g class="link" data-entity-1="ParkingSpot" data-entity-2="Vehicle" data-source-line="35" data-uid="lnk22" id="link_ParkingSpot_Vehicle"><path codeLine="35" d="M312.2827,485.239 C318.0027,487.389 312.44,485.2669 318,487.2969 C386.62,512.3469 464.29,538.5669 525.8,558.8369" fill="none" id="ParkingSpot-backto-Vehicle" style="stroke:#181818;stroke-width:1;"/><polygon fill="none" points="301.05,481.0169,305.259,486.8722,312.2827,485.239,308.0737,479.3837,301.05,481.0169" style="stroke:#181818;stroke-width:1;"/></g><!--reverse link ParkingLot to Level--><g class="link" data-entity-1="ParkingLot" data-entity-2="Level" data-source-line="45" data-uid="lnk25" id="link_ParkingLot_Level"><path codeLine="45" d="M279.1622,150.0456 C261.2622,168.7456 248.89,181.6769 230.31,201.0969" fill="none" id="ParkingLot-backto-Level" style="stroke:#181818;stroke-width:1;"/><polygon fill="#181818" points="287.46,141.3769,280.4215,142.9453,279.1622,150.0456,286.2006,148.4772,287.46,141.3769" style="stroke:#181818;stroke-width:1;"/></g><!--reverse link Level to ParkingSpot--><g class="link" data-entity-1="Level" data-entity-2="ParkingSpot" data-source-line="46" data-uid="lnk26" id="link_Level_ParkingSpot"><path codeLine="46" d="M177,326.3169 C177,345.5269 177,355.0469 177,374.2669" fill="none" id="Level-backto-ParkingSpot" style="stroke:#181818;stroke-width:1;"/><polygon fill="#181818" points="177,314.3169,173,320.3169,177,326.3169,181,320.3169,177,314.3169" style="stroke:#181818;stroke-width:1;"/></g><!--reverse link PaymentStrategy to HourlyPayment--><g class="link" data-entity-1="PaymentStrategy" data-entity-2="HourlyPayment" data-source-line="67" data-uid="lnk30" id="link_PaymentStrategy_HourlyPayment"><path d="M466.6537,306.3128 C450.1237,339.9628 432.2,376.4669 417.4,406.5869" fill="none" id="PaymentStrategy-backto-HourlyPayment" style="stroke:#181818;stroke-width:1;stroke-dasharray:7.0,7.0;"/><polygon fill="none" points="474.59,290.1569,461.2683,303.6674,472.039,308.9583,474.59,290.1569" style="stroke:#181818;stroke-width:1;"/></g><!--reverse link PaymentStrategy to DailyPayment--><g class="link" data-entity-1="PaymentStrategy" data-entity-2="DailyPayment" data-source-line="68" data-uid="lnk32" id="link_PaymentStrategy_DailyPayment"><path d="M513.86,306.2364 C530.79,339.8864 549.18,376.4669 564.32,406.5869" fill="none" id="PaymentStrategy-backto-DailyPayment" style="stroke:#181818;stroke-width:1;stroke-dasharray:7.0,7.0;"/><polygon fill="none" points="505.77,290.1569,508.5001,308.9331,519.2198,303.5398,505.77,290.1569" style="stroke:#181818;stroke-width:1;"/></g><!--link Ticket to Vehicle--><g class="link" data-entity-1="Ticket" data-entity-2="Vehicle" data-source-line="70" data-uid="lnk33" id="link_Ticket_Vehicle"><path codeLine="70" d="M721.31,487.4369 C706.03,506.8969 692.7247,523.8272 678.0147,542.5672" fill="none" id="Ticket-to-Vehicle" style="stroke:#181818;stroke-width:1;"/><polygon fill="#181818" points="674.31,547.2869,683.0135,542.6772,677.3973,543.3538,676.7206,537.7376,674.31,547.2869" style="stroke:#181818;stroke-width:1;"/></g><!--link ParkingLot to PaymentStrategy--><g class="link" data-entity-1="ParkingLot" data-entity-2="PaymentStrategy" data-source-line="71" data-uid="lnk34" id="link_ParkingLot_PaymentStrategy"><path codeLine="71" d="M378.83,141.3769 C404.9,168.4469 432.6589,197.2542 455.5889,221.0742" fill="none" id="ParkingLot-to-PaymentStrategy" style="stroke:#181818;stroke-width:1;"/><polygon fill="#181818" points="459.75,225.3969,456.3901,216.1389,456.2824,221.7947,450.6266,221.687,459.75,225.3969" style="stroke:#181818;stroke-width:1;"/></g><!--SRC=[ZLJRZjem47tFL_YfXRRy02ehRI7RHPj2HB9KVJHce1OcZco7BbhjltTy8UjmKVlcp8pFd7Dc7CED099JjUFLbcJIa0belgsIv2CPZKOad_zC5wIOFo_6QM4Z2QyCg0rbU4l-0LN8Hk7vDNbB4YQercGizwj66ouhmlUrW3rKHiV5eIvTtig7tilqSJhEGbkwqaPHPeY_l8JVd0dRbv014Pn1fI4Nr00Pai8eLECoTSHns6b2o6Uo1LCUQ-Zrto-zow2Am8k1Qjrs2vblV0StKgLgsEuYbvpOVXeChWdDxnTFqzbtKkJpyghQC9-YnlbunHgFqtLNAzTpnfgQWuslf1H0AoSJ8N2aWKJl4CWCJ_pwhcYZ06o3Nh_ZWUjv4XJnYBpuHudpv6PD4ckJw4zhclScIvTfvatnS1aSG0GNDa9ADMlsAr0e1pUpzKRZTyQr-Hh1ttcTl5hV7oWNT2Myu1k6SFtG2E5susJcMqlNlXGxJSScyPpST6DftUbcypAI4U647ROOBMs7w0dNM7bxTdWiETk1SRNmmisfrhXmc_-2G4Vxrd1Zy9biZ_OzT2CMR2qRzCKgzUpBwVWfBSa7bF7hHpgB9NZSGDztErz915V7akyjumdsi4UVGABNuXS2BPFebtCcuTMfPbImnhxz1xYGtTNaYJ_YwnF7WDNv2NNXG_a4b-L_gfDWo61mrxAFncp3PrV-0W00]--></g></svg>